<svg xmlns="http://www.w3.org/2000/svg" xmlns:xlink="http://www.w3.org/1999/xlink" viewBox="0 0 768 768"><defs><style>.cls-1{fill:url(#linear-gradient);}.cls-2{font-size:60px;font-family:CenturyGothic-Bold, Century Gothic;font-weight:700;}.cls-2,.cls-21{fill:#fff;}.cls-3{font-size:36px;fill:#ededed;font-family:OCRAExtended, OCR A Extended;}.cls-4{fill:#3297ba;}.cls-5{fill:url(#linear-gradient-2);}.cls-6{fill:#29ede6;}.cls-7{fill:#1af7f9;}.cls-8{fill:#08f3ff;}.cls-9{fill:#24f4e9;}.cls-10{fill:#16f0f6;}.cls-11{fill:#00ecf6;}.cls-12{fill:#20f2f6;}.cls-13{fill:#29efe9;}.cls-14{fill:#27ede6;}.cls-15{fill:#00efff;}.cls-16{fill:#0dfafa;}.cls-17{fill:#00e6ff;}.cls-18{fill:#1ff1e0;}.cls-19{fill:#0aebfd;}.cls-20{fill:url(#linear-gradient-3);}.cls-22{fill:url(#radial-gradient);}.cls-23{fill:url(#linear-gradient-4);}.cls-24{fill:url(#linear-gradient-5);}</style><linearGradient id="linear-gradient" x1="304.02" y1="11.25" x2="465.14" y2="762.16" gradientUnits="userSpaceOnUse"><stop offset="0.25" stop-color="#2e2e2e"/><stop offset="1" stop-color="#151515"/></linearGradient><linearGradient id="linear-gradient-2" x1="414.13" y1="198.64" x2="368.13" y2="198.64" gradientUnits="userSpaceOnUse"><stop offset="0" stop-color="#12ecfa"/><stop offset="1" stop-color="#00b7ff" stop-opacity="0.9"/></linearGradient><linearGradient id="linear-gradient-3" x1="412.02" y1="435.82" x2="284.18" y2="435.82" gradientUnits="userSpaceOnUse"><stop offset="0" stop-color="#12ecfa"/><stop offset="1" stop-color="#00b7ff"/></linearGradient><radialGradient id="radial-gradient" cx="465.09" cy="365.63" fx="543.7547813997961" fy="446.6914686151124" r="112.96" gradientTransform="matrix(0.39, -0.92, 0.88, 0.37, -35.9, 658.82)" xlink:href="#linear-gradient-3"/><linearGradient id="linear-gradient-4" x1="356.2" y1="257.54" x2="191.27" y2="257.54" gradientUnits="userSpaceOnUse"><stop offset="0.59" stop-color="#12ecfa"/><stop offset="1" stop-color="#00b7ff"/></linearGradient><linearGradient id="linear-gradient-5" x1="397.1" y1="242.06" x2="495.44" y2="361.52" gradientUnits="userSpaceOnUse"><stop offset="0.42" stop-color="#fff"/><stop offset="0.48" stop-color="#cbc8cf"/></linearGradient></defs><g id="Layer_2" data-name="Layer 2"><g id="Layer_7" data-name="Layer 7"><rect class="cls-1" width="768" height="768"/><text class="cls-2" transform="translate(107.87 601.23)">JEFRE MASSINGUE</text><text class="cls-3" transform="translate(332.87 640.94)">&lt;developer /&gt;</text></g><g id="Layer_2-2" data-name="Layer 2"><path class="cls-4" d="M325.25,209.71l-48.75,31c-5.26,3.57-22.26,16.1-27.13,38.5a47.17,47.17,0,0,0-.74,20.13,44.41,44.41,0,0,0,6,15.12c-30.91-1.3-57,19.28-61.83,45.67A184.32,184.32,0,0,1,199,283.57c22.1-74.3,86.23-124,156.44-128.61h0c3.68,17-7.76,32.47-11.11,37C340.32,197.44,336.25,202.71,325.25,209.71Z"/><path class="cls-4" d="M524.49,380.38C500.51,461,427.05,512.7,350,509.17q-6.93-.32-13.9-1.25H336a3.06,3.06,0,0,1-.48-.07,1.74,1.74,0,0,1-.83-.44c-1-1-.56-3.53,1.31-6.19a54.54,54.54,0,0,1,4.25-6.37,53.89,53.89,0,0,1,4.5-5.13,175.27,175.27,0,0,1,31.5-23.81c9-5.28,16.15-8.36,30.88-17.19,7.45-4.47,13.44-8.37,17.37-11a132.85,132.85,0,0,0,47.5-46A116.3,116.3,0,0,0,483.37,362c4.36-19,4-40,3.26-48.88-.55-6.76.28-13.59-.07-20.37a18.94,18.94,0,0,1,.68-6.19c.12-.42.23-.76.3-1s.2-.74.38-1.26c2.18-6.59,6.9-10.61,11.27-14,11.06-8.57,16.6-12.87,19.67-11.32A182.42,182.42,0,0,1,524.49,380.38Z"/><g id="Layer_6" data-name="Layer 6"><path class="cls-5" d="M368.13,200.21q.12,18.43.25,36.87a89.83,89.83,0,0,0,45.75-76.87,84.35,84.35,0,0,1-25.25,29.12,82.55,82.55,0,0,1-20.49,10.72Z"/><path class="cls-6" d="M368.25,192.71c0-.8,0-1.25,0-1.25h0s-.24-31.18-.24-31.25A98.13,98.13,0,0,1,368,136a16.57,16.57,0,0,1,32.75,3,84.47,84.47,0,0,1-32.5,53.75Z"/><path class="cls-7" d="M465.88,214.08c-.49,17.22-.67,31.27-.75,40.75-.18,20.35-.45,85.58-.88,97.13-.12,3.28-.25,6.58-.37,9.87-.09,2.1-.17,4.28-.25,6.38a82.05,82.05,0,0,0,5.62-14.88,81.08,81.08,0,0,0,2.75-18l-.12-57A161,161,0,0,1,482,231a104.69,104.69,0,0,0,1.5-10.38,106.47,106.47,0,0,0-.12-21.25Z"/><path class="cls-8" d="M485.88,259.33c.51.33,2.76-3.17,7.12-6.37a30.72,30.72,0,0,1,9.75-4.75,3,3,0,0,0,2.75-1.13c.8-1.22.29-3.39-1.62-4.5a11.75,11.75,0,0,0-6.13.13A12.36,12.36,0,0,0,490.5,249C486.1,257.09,485.52,259.1,485.88,259.33Z"/><path class="cls-9" d="M512.13,212.08c2-1.43,4.24-3,7.25-2.75a9.18,9.18,0,0,1,6,3.5,7.66,7.66,0,0,1,2,4.75c.06,3-2.12,5.17-3.75,6.75a19.86,19.86,0,0,1-10.75,5.13,8.09,8.09,0,0,1-5.75-3.5,7.82,7.82,0,0,1-.25-7.88A17.84,17.84,0,0,1,512.13,212.08Z"/><path class="cls-10" d="M528.63,183.33c.71,1,2.7.75,3.62.5,1.42-.38,3.5-1.61,3.38-3.12s-2.48-2.86-4.38-2.38C529,178.92,527.74,182.06,528.63,183.33Z"/><path class="cls-11" d="M497.13,197.33c.58.51,1.71.23,3.12-.12a12.21,12.21,0,0,0,3.13-1.38c2.4-1.36,3.6-2.05,4-3a4.12,4.12,0,0,0-1.13-4.62c-2.15-1.62-5.48.6-5.87.87C497.06,191.36,495.88,196.23,497.13,197.33Z"/><path class="cls-12" d="M467.25,190.83c1.69,1.18,6-6,18-13.5,7.65-4.79,16-7.55,32.38-12.87,13.92-4.53,16-4.46,24.75-8.13,15.64-6.56,20-11.37,22.12-14.25,2-2.67,6.64-8.92,6-17.37a23.66,23.66,0,0,0-9.75-17.13c-11-7.27-32.82-.19-51.75,20a145.74,145.74,0,0,0-24.75,27C473.21,170.21,464.61,189,467.25,190.83Z"/><path class="cls-13" d="M485.13,129.08c2.15,1.13,8.62-7.25,12-11.62,6-7.74,10.31-13.37,12.5-22.13,1.3-5.24,4.25-17-2.25-23.12-3.18-3-8.6-4.6-13-2.75-5.19,2.17-6.73,8.22-7.5,11.25-2.21,8.63,1.34,12.28,2,22.25C489.88,118.15,482.82,127.87,485.13,129.08Z"/><path class="cls-14" d="M417.75,197.33c3.16,2.06,19.56-18.36,23.38-23.12,14.52-18.1,18.7-29.1,20.62-35.38,2.17-7.1,3.9-13,2.13-20.37-2-8.3-8.92-20-18.75-20-6.73,0-12.79,5.57-15.5,11.37-4.62,9.86,1.58,18,3.75,30.13C438.73,170,414.12,195,417.75,197.33Z"/><path class="cls-15" d="M333.88,145.08c1.45.26,2.7-1,3.87-2.25s2.86-3,2.38-4.62c-.58-2-4-3.29-6.5-2a5,5,0,0,0-2.5,4.75C331.23,142.59,332.2,144.78,333.88,145.08Z"/><path class="cls-16" d="M321.75,128.08c3.86.51,6.93-2.6,8.25-5,.15-.27,3.1-5.82-.25-9.75-2.23-2.62-5.94-3-8.62-2.12a8.81,8.81,0,0,0-6.13,7.5C314.6,123,317.56,127.53,321.75,128.08Z"/><path class="cls-10" d="M554.13,181.52c.75,1.46,3.88,1.68,5.81.37,1.12-.76,2.46-2.46,1.87-3.93s-2.82-1.88-4.31-1.5C555.1,177.07,553.34,180,554.13,181.52Z"/><path class="cls-17" d="M361.38,372.67c1.88.6,3.39-9.85,15.37-23.62,10-11.46,24.5-22.1,32-22.86.7-.07,3.53-.28,3.75-1.33s-2.85-2.69-3.47-3a18.78,18.78,0,0,0-9.09-1.78,30.14,30.14,0,0,0-9.94,2.16c-.7.26-9.1,3.47-15.09,8.72C359.74,344.19,358.37,371.72,361.38,372.67Z"/><path class="cls-18" d="M304.38,244.14l1.68,118.32a94.86,94.86,0,0,0-9.37-21.19c-5.64-9.38-9.46-11.92-16.5-23.81-4.19-7.08-6.3-10.65-7.88-16.13-.95-3.32-3.85-14.76-.18-26.81C278.75,252.76,301.93,244.93,304.38,244.14Z"/><path class="cls-19" d="M213.44,414c.38-4.15,2.89-27.34,23.44-44.06,20.31-16.54,43.21-14.52,47.43-14.07a41.09,41.09,0,0,0-14.62-13.12c-21.2-11.1-44.13,2.84-47.06,4.69a36.59,36.59,0,0,0-13.32,13.12A37.48,37.48,0,0,0,205,374.83C203,391.78,210,407.35,213.44,414Z"/><path class="cls-20" d="M284.19,488c-.24,2.33,7.87,6.38,15.56,7.25a27.6,27.6,0,0,0,6.31,0c6.6-.83,11.17-4.15,16.5-8.25,9.3-7.17,13.94-10.75,21.7-18,5.78-5.42,8.79-8.25,12.8-12.72,6.38-7.11,12.43-13.84,17.63-23.82,4.23-8.12,5.11-13,11.44-21s8.9-7.43,9.5-7.25c2.45.75,3.81,5,3.81,10.44a24.18,24.18,0,0,0,8.06-7.12c1.22-1.71,5.89-8.29,4.13-16.75-.39-1.87-2-8.37-8-12.07-8.82-5.46-19.42,0-21.44,1-7.91,4.05-11.53,11-14.81,17.25-4.14,7.92-5.1,14.36-6.13,19.19-1.46,6.82-6.67,31.15-23,49-4.06,4.44-12.56,13.52-26.25,18.13C297.66,488,284.42,485.66,284.19,488Z"/><path class="cls-21" d="M320.13,236.27l26.25-21.94-.38,198a57.53,57.53,0,0,1-9.75,30c-11.26,16.45-31,25.81-50.72,24.75-20.75-1.12-43.59-13.9-50.53-35.81-1-3.28-6.29-21.11,4.31-37.69,11.78-18.42,32.52-19.78,34.5-19.87a35.88,35.88,0,0,1,15.75,3.18,37.24,37.24,0,0,1,8.43,5.2c.48.43,4.16,3.82,3.76,8.87-.06.75-.44,4.53-3.41,6.73-2.14,1.59-4.54,1.53-7.56,1.42-15-.55-15.83-.91-18.28-.28-1.41.37-7.58,2.15-10.87,7.88-3.86,6.68-1.09,14.05-.38,15.93,3,7.91,9.68,11.63,11.44,12.57,12.27,6.56,30.43,2.76,40.12-9,6.1-7.39,7.13-15.84,7.32-20.07Z"/></g></g><g id="Layer_5" data-name="Layer 5"><path class="cls-22" d="M524.49,380.38C500.51,461,427.05,512.7,350,509.17l-13.9-1.25H336a3.06,3.06,0,0,1-.48-.07,1.74,1.74,0,0,1-.83-.44c-1-1-.56-3.53,1.31-6.19a54.54,54.54,0,0,1,4.25-6.37,53.89,53.89,0,0,1,4.5-5.13,175.27,175.27,0,0,1,31.5-23.81c9-5.28,16.15-8.36,30.88-17.19,7.45-4.47,13.44-8.37,17.37-11a132.85,132.85,0,0,0,47.5-46A116.3,116.3,0,0,0,483.37,362c4.36-19,4-40,3.26-48.88-.55-6.76.28-13.59-.07-20.37a18.94,18.94,0,0,1,.68-6.19c.12-.42.23-.76.3-1s.2-.74.38-1.26c2.18-6.59,6.9-10.61,11.27-14,11.06-8.57,16.6-12.87,19.67-11.32A182.42,182.42,0,0,1,524.49,380.38Z"/><path class="cls-23" d="M344.37,192c-4.05,5.48-8.12,10.75-19.12,17.75l-48.75,31c-5.26,3.57-22.26,16.1-27.13,38.5a47.17,47.17,0,0,0-.74,20.13,44.41,44.41,0,0,0,6,15.12c-30.91-1.3-57,19.28-61.83,45.67A184.32,184.32,0,0,1,199,283.57c22.1-74.3,86.23-124,156.44-128.61h0C359.16,172,347.72,187.44,344.37,192Z"/></g><g id="Layer_3" data-name="Layer 3"><polygon class="cls-24" points="368.31 248.02 451.38 174.52 451.19 386.02 424.56 408.89 424.19 241.08 368.31 288.14 368.31 248.02"/></g></g></svg>