<svg xmlns="http://www.w3.org/2000/svg" xmlns:xlink="http://www.w3.org/1999/xlink" viewBox="0 0 513.54 550.96"><defs><style>.cls-1{font-size:60px;font-family:CenturyGothic-Bold, Century Gothic;font-weight:700;}.cls-1,.cls-19{fill:#fff;}.cls-2{fill:#3297ba;}.cls-3{fill:url(#linear-gradient);}.cls-4{fill:#29ede6;}.cls-5{fill:#1af7f9;}.cls-6{fill:#08f3ff;}.cls-7{fill:#24f4e9;}.cls-8{fill:#16f0f6;}.cls-9{fill:#00ecf6;}.cls-10{fill:#20f2f6;}.cls-11{fill:#29efe9;}.cls-12{fill:#27ede6;}.cls-13{fill:#00efff;}.cls-14{fill:#0dfafa;}.cls-15{fill:#00e6ff;}.cls-16{fill:#1ff1e0;}.cls-17{fill:#0aebfd;}.cls-18{fill:url(#linear-gradient-2);}.cls-20{fill:url(#radial-gradient);}.cls-21{fill:url(#linear-gradient-3);}.cls-22{fill:url(#linear-gradient-4);}</style><linearGradient id="linear-gradient" x1="306.26" y1="129.97" x2="260.26" y2="129.97" gradientUnits="userSpaceOnUse"><stop offset="0" stop-color="#12ecfa"/><stop offset="1" stop-color="#00b7ff" stop-opacity="0.9"/></linearGradient><linearGradient id="linear-gradient-2" x1="304.15" y1="367.14" x2="176.32" y2="367.14" gradientUnits="userSpaceOnUse"><stop offset="0" stop-color="#12ecfa"/><stop offset="1" stop-color="#00b7ff"/></linearGradient><radialGradient id="radial-gradient" cx="357.22" cy="296.95" fx="435.8863624341801" fy="378.0174473107311" r="112.96" gradientTransform="matrix(0.39, -0.92, 0.88, 0.37, -41.69, 516.18)" xlink:href="#linear-gradient-2"/><linearGradient id="linear-gradient-3" x1="248.33" y1="188.87" x2="83.4" y2="188.87" gradientUnits="userSpaceOnUse"><stop offset="0.59" stop-color="#12ecfa"/><stop offset="1" stop-color="#00b7ff"/></linearGradient><linearGradient id="linear-gradient-4" x1="289.23" y1="173.38" x2="387.57" y2="292.84" gradientUnits="userSpaceOnUse"><stop offset="0.42" stop-color="#fff"/><stop offset="0.48" stop-color="#cbc8cf"/></linearGradient></defs><g id="Layer_2" data-name="Layer 2"><g id="Layer_7" data-name="Layer 7"><text class="cls-1" transform="translate(0 532.56)">JEFRE MASSINGUE</text></g><g id="Layer_2-2" data-name="Layer 2"><path class="cls-2" d="M217.38,141l-48.75,31c-5.26,3.57-22.26,16.1-27.13,38.5a47.17,47.17,0,0,0-.74,20.13,44.41,44.41,0,0,0,6,15.12c-30.91-1.3-57,19.28-61.83,45.67a184.32,184.32,0,0,1,6.24-76.56c22.1-74.3,86.23-124,156.44-128.61h0c3.68,17-7.76,32.47-11.11,37C232.45,128.76,228.38,134,217.38,141Z"/><path class="cls-2" d="M416.62,311.7c-24,80.63-97.44,132.32-174.46,128.79q-6.93-.32-13.9-1.25h-.13a3.06,3.06,0,0,1-.48-.07,1.74,1.74,0,0,1-.83-.44c-1-1-.56-3.53,1.31-6.19a54.54,54.54,0,0,1,4.25-6.37,53.89,53.89,0,0,1,4.5-5.13,175.27,175.27,0,0,1,31.5-23.81c9-5.28,16.15-8.36,30.88-17.19,7.45-4.47,13.44-8.37,17.37-11a132.85,132.85,0,0,0,47.5-46,116.3,116.3,0,0,0,11.37-29.75c4.36-19,4-40,3.26-48.88-.55-6.76.28-13.59-.07-20.37a18.94,18.94,0,0,1,.68-6.19c.12-.42.23-.76.3-1s.2-.74.38-1.26c2.18-6.59,6.9-10.61,11.27-14,11.06-8.57,16.6-12.87,19.67-11.32A182.42,182.42,0,0,1,416.62,311.7Z"/><g id="Layer_6" data-name="Layer 6"><path class="cls-3" d="M260.26,131.53q.12,18.43.25,36.88a89.83,89.83,0,0,0,45.75-76.88A84.45,84.45,0,0,1,281,120.66a83.23,83.23,0,0,1-20.49,10.72Z"/><path class="cls-4" d="M260.38,124c0-.79,0-1.24,0-1.24h0s-.24-31.18-.24-31.26a98.13,98.13,0,0,1,0-24.25,16.57,16.57,0,0,1,32.75,3A84.47,84.47,0,0,1,260.38,124Z"/><path class="cls-5" d="M358,145.41c-.48,17.21-.67,31.26-.75,40.75-.18,20.35-.45,85.58-.88,97.12q-.18,4.94-.37,9.88c-.08,2.09-.17,4.28-.25,6.37a81.45,81.45,0,0,0,8.37-32.87l-.12-57a161.14,161.14,0,0,1,10.12-47.38,104,104,0,0,0,1.5-10.37,106.47,106.47,0,0,0-.12-21.25Q366.75,138,358,145.41Z"/><path class="cls-6" d="M378,190.66c.51.33,2.76-3.18,7.12-6.38a30.94,30.94,0,0,1,9.75-4.75,3,3,0,0,0,2.75-1.12c.8-1.23.29-3.39-1.62-4.5a11.62,11.62,0,0,0-6.13.12,12.43,12.43,0,0,0-7.25,6.25C378.24,188.42,377.65,190.43,378,190.66Z"/><path class="cls-7" d="M404.26,143.41c2-1.43,4.24-3,7.25-2.75a9.14,9.14,0,0,1,6,3.5,7.61,7.61,0,0,1,2,4.75c.06,3.05-2.12,5.16-3.75,6.75A19.73,19.73,0,0,1,405,160.78a8.05,8.05,0,0,1-5.75-3.5,7.82,7.82,0,0,1-.25-7.87A17.65,17.65,0,0,1,404.26,143.41Z"/><path class="cls-8" d="M420.76,114.66c.71,1,2.7.75,3.62.5,1.42-.39,3.5-1.61,3.38-3.13s-2.48-2.86-4.38-2.37C421.09,110.24,419.87,113.39,420.76,114.66Z"/><path class="cls-9" d="M389.26,128.66c.58.51,1.71.22,3.12-.13a11.89,11.89,0,0,0,3.13-1.37c2.4-1.37,3.6-2,4-3a4.14,4.14,0,0,0-1.13-4.63c-2.15-1.61-5.48.61-5.87.88C389.19,122.68,388,127.56,389.26,128.66Z"/><path class="cls-10" d="M359.38,122.16c1.7,1.17,6-6,18-13.5,7.65-4.8,16-7.56,32.38-12.88,13.92-4.52,16-4.45,24.75-8.12,15.64-6.56,20-11.37,22.12-14.25,2-2.67,6.65-8.92,6-17.38a23.66,23.66,0,0,0-9.75-17.12c-11-7.27-32.82-.19-51.75,20a145.74,145.74,0,0,0-24.75,27C365.34,101.53,356.74,120.33,359.38,122.16Z"/><path class="cls-11" d="M377.26,60.41c2.15,1.13,8.62-7.25,12-11.63,6-7.73,10.31-13.37,12.5-22.12,1.31-5.24,4.25-17-2.25-23.13-3.18-3-8.6-4.59-13-2.75C381.32,3,379.78,9,379,12c-2.21,8.63,1.34,12.28,2,22.25C382,49.48,375,59.2,377.26,60.41Z"/><path class="cls-12" d="M309.88,128.66c3.16,2.06,19.56-18.37,23.38-23.13,14.52-18.1,18.7-29.09,20.62-35.37,2.17-7.11,3.9-13,2.13-20.38-2-8.3-8.92-20-18.75-20-6.73,0-12.79,5.57-15.5,11.38-4.62,9.86,1.58,18,3.75,30.12C330.86,101.29,306.25,126.29,309.88,128.66Z"/><path class="cls-13" d="M226,76.41c1.45.26,2.7-1,3.87-2.25s2.86-3,2.38-4.63c-.57-2-4-3.28-6.5-2a5,5,0,0,0-2.5,4.75C223.36,73.92,224.33,76.1,226,76.41Z"/><path class="cls-14" d="M213.88,59.41c3.86.51,6.93-2.61,8.25-5,.15-.27,3.1-5.83-.25-9.75-2.23-2.63-5.94-2.95-8.62-2.13a8.82,8.82,0,0,0-6.13,7.5C206.74,54.3,209.69,58.85,213.88,59.41Z"/><path class="cls-8" d="M446.26,112.84c.75,1.47,3.88,1.69,5.81.38,1.12-.76,2.46-2.46,1.88-3.94s-2.83-1.88-4.32-1.5C447.23,108.4,445.47,111.32,446.26,112.84Z"/><path class="cls-15" d="M253.51,304c1.88.6,3.39-9.86,15.37-23.62,10-11.47,24.5-22.11,32-22.87.7-.07,3.53-.28,3.75-1.32s-2.85-2.69-3.47-3a18.55,18.55,0,0,0-9.09-1.78,30.1,30.1,0,0,0-9.94,2.15c-.7.27-9.1,3.48-15.09,8.72C251.88,275.52,250.5,303.05,253.51,304Z"/><path class="cls-16" d="M196.51,175.47l1.69,118.31a95.23,95.23,0,0,0-9.38-21.19c-5.64-9.38-9.46-11.91-16.5-23.81-4.19-7.08-6.3-10.64-7.87-16.12-1-3.32-3.86-14.76-.19-26.82C170.88,184.09,194.06,176.25,196.51,175.47Z"/><path class="cls-17" d="M105.57,345.34c.38-4.15,2.89-27.33,23.44-44.06,20.31-16.53,43.21-14.51,47.44-14.06a41.24,41.24,0,0,0-14.63-13.13c-21.2-11.09-44.12,2.85-47.06,4.69a36.63,36.63,0,0,0-13.31,13.13,37.34,37.34,0,0,0-4.32,14.25C95.14,323.1,102.14,338.68,105.57,345.34Z"/><path class="cls-18" d="M176.32,419.28c-.23,2.34,7.87,6.39,15.56,7.25a27.1,27.1,0,0,0,6.32,0c6.59-.83,11.16-4.14,16.5-8.25,9.29-7.16,13.94-10.74,21.7-18,5.77-5.42,8.78-8.25,12.8-12.72,6.37-7.1,12.42-13.83,17.62-23.81,4.24-8.12,5.11-13,11.44-21s8.91-7.43,9.5-7.25c2.45.75,3.82,5,3.81,10.44a24.12,24.12,0,0,0,8.06-7.13c1.22-1.71,5.89-8.28,4.13-16.75-.39-1.86-2-8.37-8-12.06-8.82-5.46-19.41,0-21.44,1-7.91,4-11.53,11-14.81,17.25-4.14,7.91-5.09,14.36-6.13,19.19-1.46,6.82-6.67,31.15-23,49-4.06,4.44-12.56,13.52-26.25,18.12C189.79,419.36,176.55,417,176.32,419.28Z"/><path class="cls-19" d="M212.26,167.59l26.25-21.93-.38,198a57.49,57.49,0,0,1-9.75,30c-11.26,16.45-31,25.81-50.72,24.75-20.75-1.12-43.59-13.9-50.53-35.82-1-3.28-6.29-21.1,4.32-37.68C143.22,306.49,164,305.13,166,305a36,36,0,0,1,15.75,3.19,37,37,0,0,1,8.42,5.19c.49.44,4.16,3.82,3.76,8.87-.06.75-.44,4.54-3.41,6.73-2.14,1.59-4.54,1.54-7.56,1.43-15-.56-15.83-.92-18.28-.28-1.41.36-7.58,2.15-10.87,7.87-3.85,6.69-1.08,14.06-.38,15.94,3,7.91,9.68,11.62,11.44,12.56,12.27,6.56,30.43,2.76,40.13-9a33.85,33.85,0,0,0,7.31-20.06Z"/></g></g><g id="Layer_5" data-name="Layer 5"><path class="cls-20" d="M416.62,311.7c-24,80.63-97.44,132.32-174.46,128.79l-13.9-1.25h-.13a3.06,3.06,0,0,1-.48-.07,1.74,1.74,0,0,1-.83-.44c-1-1-.56-3.53,1.31-6.19a54.54,54.54,0,0,1,4.25-6.37,53.89,53.89,0,0,1,4.5-5.13,175.27,175.27,0,0,1,31.5-23.81c9-5.28,16.15-8.36,30.88-17.19,7.45-4.47,13.44-8.37,17.37-11a132.85,132.85,0,0,0,47.5-46,116.3,116.3,0,0,0,11.37-29.75c4.36-19,4-40,3.26-48.88-.55-6.76.28-13.59-.07-20.37a18.94,18.94,0,0,1,.68-6.19c.12-.42.23-.76.3-1s.2-.74.38-1.26c2.18-6.59,6.9-10.61,11.27-14,11.06-8.57,16.6-12.87,19.67-11.32A182.42,182.42,0,0,1,416.62,311.7Z"/><path class="cls-21" d="M236.5,123.28c-4.05,5.48-8.12,10.75-19.12,17.75l-48.75,31c-5.26,3.57-22.26,16.1-27.13,38.5a47.17,47.17,0,0,0-.74,20.13,44.41,44.41,0,0,0,6,15.12c-30.91-1.3-57,19.28-61.83,45.67a184.32,184.32,0,0,1,6.24-76.56c22.1-74.3,86.23-124,156.44-128.61h0C251.29,103.32,239.85,118.76,236.5,123.28Z"/></g><g id="Layer_3" data-name="Layer 3"><polygon class="cls-22" points="260.44 179.34 343.51 105.84 343.32 317.34 316.69 340.22 316.32 172.41 260.44 219.47 260.44 179.34"/></g></g></svg>