<?xml version="1.0" encoding="utf-8"?>
<!-- Generator: Adobe Illustrator 25.4.1, SVG Export Plug-In . SVG Version: 6.00 Build 0)  -->
<svg version="1.0" id="katman_1" xmlns="http://www.w3.org/2000/svg" xmlns:xlink="http://www.w3.org/1999/xlink" x="0px" y="0px"
	 viewBox="0 0 514 400" style="enable-background:new 0 0 514 400;" xml:space="preserve">
<style type="text/css">
	.st0{fill:#E24329;}
	.st1{fill:#FC6D26;}
	.st2{fill:#FCA326;}
</style>
<g id="LOGO">
	<path class="st0" d="M397.5,170.8l-0.4-1L357.5,66.5c-0.8-2-2.2-3.7-4.1-4.9c-3.8-2.3-8.6-2.1-12.1,0.7c-1.7,1.4-2.9,3.2-3.5,5.3
		l-26.7,81.7H203l-26.7-81.7c-0.6-2.1-1.8-4-3.5-5.3c-3.5-2.7-8.3-3-12.1-0.7c-1.8,1.2-3.3,2.9-4.1,4.9l-39.6,103.2l-0.4,1
		c-11.7,30.6-1.8,65.2,24.4,84.9l0.1,0.1l0.4,0.3l60.3,45.1l29.8,22.6l18.2,13.7c4.4,3.3,10.4,3.3,14.8,0l18.2-13.7l29.8-22.6
		l60.6-45.4l0.2-0.1C399.2,235.9,409.2,201.4,397.5,170.8z"/>
	<path class="st1" d="M397.5,170.8l-0.4-1c-19.3,4-37.4,12.1-53.2,23.9L257,259.4c29.6,22.4,55.3,41.8,55.3,41.8l60.6-45.4l0.2-0.1
		C399.2,236,409.2,201.4,397.5,170.8z"/>
	<path class="st2" d="M201.7,301.2l29.8,22.6l18.2,13.7c4.4,3.3,10.4,3.3,14.8,0l18.2-13.7l29.8-22.6c0,0-25.8-19.5-55.4-41.8
		C227.4,281.7,201.7,301.2,201.7,301.2z"/>
	<path class="st1" d="M170.1,193.7c-15.7-11.8-33.9-20-53.2-24l-0.4,1c-11.7,30.6-1.8,65.2,24.4,84.9l0.1,0.1l0.4,0.3l60.3,45.1
		c0,0,25.7-19.4,55.3-41.8L170.1,193.7z"/>
</g>
</svg>
