<?xml version="1.0" encoding="utf-8"?>
<!-- Generator: Adobe Illustrator 27.5.0, SVG Export Plug-In . SVG Version: 6.00 Build 0)  -->
<svg version="1.1" xmlns="http://www.w3.org/2000/svg" xmlns:xlink="http://www.w3.org/1999/xlink" x="0px" y="0px"
	 viewBox="0 0 500 500" style="enable-background:new 0 0 500 500;" xml:space="preserve">
<g id="BACKGROUND">
	<rect style="fill:#FFFFFF;" width="500" height="500"/>
</g>
<g id="OBJECTS">
	<path style="fill:#5686C4;" d="M48.388,447.5H77.5c0,0,2.482-7.715-5.75-7.166c-3.778,0.252-5.935,2.416-5.935,2.416
		s-0.213-12.283-8.713-11.533S45.026,440,48.388,447.5z"/>
	<path style="fill:#5686C4;" d="M321.27,437.324c0,0-2.654-7.689,5.107-8.37c5.122-0.449,6.78,2.296,6.78,2.296
		s0.669-9.509,6.629-11.401c5.959-1.893,6.637,13.172,6.637,13.172s0.15-4.066,6.44-4.517c6.291-0.45,5.96,5.179,5.96,5.179
		s7.449-0.993,7.449,3.642H321.27z"/>
	<g>
		<polygon style="fill:#2A4F9A;" points="250,403.811 291.516,411.168 291.516,424.044 250,417.211 		"/>
		<line style="fill:none;stroke:#C6D8ED;stroke-miterlimit:10;" x1="282.286" y1="418.531" x2="256.401" y2="414.287"/>
		<line style="fill:none;stroke:#C6D8ED;stroke-miterlimit:10;" x1="286.901" y1="414.287" x2="252.625" y2="408.668"/>
		<polygon style="fill:#2A4F9A;" points="291.516,411.168 316.741,395.14 316.741,408.54 291.516,424.044 		"/>
		<line style="fill:none;stroke:#C6D8ED;stroke-miterlimit:10;" x1="312.929" y1="401.884" x2="296.38" y2="412.055"/>
		<line style="fill:none;stroke:#C6D8ED;stroke-miterlimit:10;" x1="313.863" y1="406.309" x2="296.38" y2="417.055"/>
		<polygon style="fill:#5686C4;" points="276.014,389.359 316.741,395.14 291.516,411.168 250,403.811 		"/>
		<polygon style="fill:#C6D8ED;" points="294.259,389.359 253.53,395.14 278.757,411.168 320.272,403.811 		"/>
	</g>
	<path style="fill:#2A4F9A;" d="M431.149,439.368c0.101-0.195,0.155-0.399,0.155-0.608c0-1.621-3.2-2.935-7.148-2.935
		c-3.946,0-7.147,1.314-7.147,2.935c0,1.62,3.201,2.934,7.147,2.934c0.275,0,0.546-0.007,0.811-0.02
		c-0.023,0.095-0.063,0.19-0.063,0.286c0,1.443,2.579,2.614,5.761,2.614c3.183,0,5.762-1.171,5.762-2.614
		C436.427,440.592,434.101,439.48,431.149,439.368z"/>
	<path style="fill:#2A4F9A;" d="M417.009,443.134c0,0.796-1.719,1.44-3.841,1.44c-2.121,0-3.841-0.645-3.841-1.44
		c0-0.795,1.72-1.44,3.841-1.44C415.29,441.693,417.009,442.339,417.009,443.134z"/>
	<path style="fill:#2A4F9A;" d="M470.833,453.963c-0.764,0-1.477,0.09-2.115,0.238c-0.36-2.037-5.215-3.653-11.167-3.653
		c-1.069,0-2.099,0.055-3.077,0.152c0.264-0.243,0.41-0.51,0.41-0.791c0-1.12-2.316-2.028-5.175-2.028
		c-2.858,0-5.175,0.908-5.175,2.028c0,1.03,1.973,1.873,4.518,2c-1.681,0.683-2.703,1.566-2.703,2.533
		c0,2.151,5.016,3.895,11.202,3.895c3.575,0,6.753-0.585,8.803-1.491c0.634,0.865,2.389,1.491,4.48,1.491
		c2.621,0,4.747-0.979,4.747-2.188C475.58,454.941,473.454,453.963,470.833,453.963z"/>
	<path style="fill:#2A4F9A;" d="M481.661,445.427c0,0.707-1.529,1.28-3.415,1.28c-1.885,0-3.412-0.573-3.412-1.28
		c0-0.707,1.527-1.28,3.412-1.28C480.132,444.147,481.661,444.72,481.661,445.427z"/>
	<g>
		<path style="fill:#5686C4;" d="M471.16,431.408c0,1.1-0.9,2-2,2h-28.916c-1.1,0-2-0.9-2-2v-26.569c0-1.1,0.9-2,2-2h28.916
			c1.1,0,2,0.9,2,2V431.408z"/>
		<path style="fill:#2A4F9A;" d="M471.16,403.52c0,1.511-4.59,2.79-11,3.261c-1.37,0.109-2.82,0.17-4.32,0.189
			c-0.38,0.011-0.76,0.011-1.14,0.011c-9.09,0-16.46-1.551-16.46-3.461c0-1.909,7.37-3.46,16.46-3.46c1.109,0,2.189,0.021,3.24,0.07
			c1.449,0.06,2.829,0.16,4.119,0.3C467.46,400.99,471.16,402.17,471.16,403.52z"/>
		<path style="fill:#B7C1DA;" d="M466.47,385.66l-4.41,14.77l-1.899,6.351c-1.37,0.109-2.82,0.17-4.32,0.189l2.101-6.84l4.779-15.58
			c0.3-1.03,1.391-1.62,2.431-1.319C466.18,383.54,466.769,384.63,466.47,385.66z"/>
		<g>
			<path style="fill:#FFFFFF;" d="M466.471,424.853c0,0.55-0.45,1-1,1h-21.537c-0.55,0-1-0.45-1-1v-8.253c0-0.55,0.45-1,1-1h21.537
				c0.55,0,1,0.45,1,1V424.853z"/>
		</g>
		<path style="fill:none;stroke:#353C73;stroke-miterlimit:10;" d="M471.16,404.158c0,0,8.634-25.028-16.458-25.028
			c-25.092,0-16.458,25.028-16.458,25.028"/>
		<line style="fill:none;stroke:#353C73;stroke-miterlimit:10;" x1="438.244" y1="404.158" x2="436.81" y2="404.158"/>
		<line style="fill:none;stroke:#353C73;stroke-miterlimit:10;" x1="471.16" y1="404.158" x2="472.688" y2="404.158"/>
	</g>
	<path style="fill:#C6D8ED;" d="M168.955,56.156h-16.849c1.09-1.741,1.731-3.793,1.731-6c0-6.259-5.074-11.333-11.333-11.333
		h-18.798c0.094-0.542,0.153-1.097,0.153-1.667c0-5.339-4.328-9.667-9.667-9.667H94.77c-5.338,0-9.667,4.328-9.667,9.667
		c0,0.569,0.059,1.124,0.153,1.667h-9.822c-6.259,0-11.333,5.074-11.333,11.333c0,2.206,0.641,4.258,1.731,6h-4.878
		c-6.627,0-12,5.373-12,12v2.177c0,6.627,5.373,12,12,12h108.001c6.627,0,12-5.373,12-12v-2.177
		C180.955,61.528,175.582,56.156,168.955,56.156z"/>
	<path style="fill:#C6D8ED;" d="M445.918,80.291h-8.743c0.212-0.748,0.333-1.535,0.333-2.351c0-4.754-3.853-8.607-8.607-8.607
		h-6.464c0.461-0.982,0.727-2.075,0.727-3.232c0-4.214-3.416-7.63-7.63-7.63h-22.67c-4.214,0-7.63,3.416-7.63,7.63
		c0,1.157,0.266,2.25,0.727,3.232h-5.475c-4.754,0-8.607,3.853-8.607,8.607c0,0.816,0.121,1.603,0.333,2.351h-11.779
		c-5.112,0-9.257,4.144-9.257,9.256c0,5.112,4.145,9.257,9.257,9.257h85.486c5.112,0,9.257-4.145,9.257-9.257
		C455.175,84.436,451.03,80.291,445.918,80.291z"/>
	<g>
		<path style="fill:#C6D8ED;" d="M423.426,315.264c0,6.627-5.373,12-12,12H88.574c-6.628,0-12-5.373-12-12V132.97
			c0-6.627,5.372-12,12-12h322.852c6.627,0,12,5.373,12,12V315.264z"/>
		<path style="fill:#B7C1DA;" d="M76.574,144.014v-11.365c0-6.628,5.372-12,12-12h322.852c6.627,0,12,5.372,12,12v11.365H76.574z"/>
		<circle style="fill:#2A4F9A;" cx="408" cy="132.331" r="3.5"/>
		<circle style="fill:#2A4F9A;" cx="391" cy="132.331" r="3.5"/>
		<circle style="fill:#2A4F9A;" cx="374" cy="132.331" r="3.5"/>
		<path style="fill:#FFFFFF;" d="M256.401,132.331c0,2.946-2.739,5.333-6.118,5.333H94.592c-3.379,0-6.118-2.388-6.118-5.333l0,0
			c0-2.946,2.739-5.334,6.118-5.334h155.691C253.662,126.998,256.401,129.385,256.401,132.331L256.401,132.331z"/>
	</g>
	<g>
		<path style="fill:#5686C4;" d="M172.375,369.644c0,0-0.668-11.977,14.666-11.977c0,0,5.666,0,8,5.988
			c0,0-3.332-19.321,8.001-21.321c11.333-2,11,18,11,18s3.833-5.165,12.083-4.416c8.25,0.749,8.583,5.082,8.583,5.082
			s14.917-3.38,15.292,8.644H172.375z"/>
		<line style="fill:none;stroke:#353C73;stroke-miterlimit:10;" x1="204.666" y1="349.644" x2="206.708" y2="369.644"/>
		<line style="fill:none;stroke:#353C73;stroke-miterlimit:10;" x1="199.333" y1="353.668" x2="205.687" y2="363.001"/>
		<line style="fill:none;stroke:#353C73;stroke-miterlimit:10;" x1="227.333" y1="363.001" x2="224.333" y2="369.472"/>
		<line style="fill:none;stroke:#353C73;stroke-miterlimit:10;" x1="183.333" y1="363.001" x2="187.333" y2="369.644"/>
	</g>
	<path style="fill:#B7C1DA;" d="M330.403,369.761h26.417c0,0,2.776-15.687-14.82-9.903
		C327.25,358.578,330.403,369.761,330.403,369.761z"/>
	<g>
		<path style="fill:#5686C4;" d="M48.713,369.472c0,0-25.277-32.989-16.494-36.844c8.782-3.856,22.492,26.776,22.492,26.776
			S30.72,290,46.143,287.215c15.424-2.785,24.848,36.201,22.063,72.403c0,0,4.928-17.565,11.996-15.852
			c7.069,1.713,3.642,13.923-3.642,25.705H48.713z"/>
		<line style="fill:none;stroke:#353C73;stroke-miterlimit:10;" x1="48.388" y1="293.5" x2="65.815" y2="369.472"/>
		<line style="fill:none;stroke:#353C73;stroke-miterlimit:10;" x1="35.167" y1="338.333" x2="57.222" y2="369.644"/>
		<line style="fill:none;stroke:#353C73;stroke-miterlimit:10;" x1="56.764" y1="330.016" x2="61.204" y2="315.001"/>
		<line style="fill:none;stroke:#353C73;stroke-miterlimit:10;" x1="46.194" y1="310.333" x2="53.709" y2="316.695"/>
		<line style="fill:none;stroke:#353C73;stroke-miterlimit:10;" x1="61.204" y1="349.369" x2="54.5" y2="342.193"/>
		<line style="fill:none;stroke:#353C73;stroke-miterlimit:10;" x1="43.333" y1="345.668" x2="43.333" y2="349.927"/>
	</g>
	<g>
		<rect x="87.343" y="234.168" style="fill:#FFFFFF;" width="74.323" height="12.432"/>
		<rect x="87.343" y="254.168" style="fill:#FFFFFF;" width="74.323" height="12.432"/>
		<rect x="87.343" y="274.168" style="fill:#FFFFFF;" width="62.907" height="12.432"/>
		<rect x="87.343" y="294.168" style="fill:#FFFFFF;" width="29.039" height="12.432"/>
	</g>
	<path style="fill:#2A4F9A;" d="M92.647,246.6c0,0,4.93,6.818-1.064,14.28c-6.334,7.886-3.695-13.86-3.695-13.86L92.647,246.6z"/>
	
		<line style="fill:none;stroke:#353C73;stroke-width:2;stroke-miterlimit:10;" x1="483.454" y1="369.644" x2="16.546" y2="369.644"/>
	<g>
		<path style="fill:#2A4F9A;" d="M62.027,384.073c-1.117,2.188-4.777,3.114-6.124,3.78c-1.929,0.956-4.81,1.909-4.64,7.25
			c0.085,2.664,15.338-0.166,19.806-2.379c2.14-1.061,3.09-1.878,3.801-6.833C75.259,383.194,63.142,381.89,62.027,384.073z"/>
		<path style="fill:#2A4F9A;" d="M105.611,384.073c1.117,2.188,4.777,3.114,6.124,3.78c1.929,0.956,4.81,1.909,4.64,7.25
			c-0.085,2.664-15.338-0.166-19.806-2.379c-2.14-1.061-3.09-1.878-3.801-6.833C92.379,383.194,104.497,381.89,105.611,384.073z"/>
		<path style="fill:#B7C1DA;" d="M67.253,319.17l-6.05,64.998c0,0,4.5,4.25,15.75,0l3.943-46.75h5.307l5.25,46.75
			c0,0,6.5,2.25,15.5-0.75l-7.641-65.466L67.253,319.17z"/>
		<path style="fill:#FBADB1;" d="M61.232,283.194c-8.534-5.625-19.788-19.903-10.979-55.026c0,0-9.152-12.879-3.714-16.5
			c3.881-2.583,9.055,11.703,9.055,11.703s3.243-3.7,4.005-3.048c0.988,0.845,0.738,2.095-3.145,7.095c0,0-7.279,34.975,9.469,46.29
			"/>
		<path style="fill:#FBADB1;" d="M94.199,273.537c7.966-5.841,12.755-19.361,12.755-47.119c0-2.176-3.813-8.938-2.563-9.5
			c1.097-0.493,2.15,2.041,2.438,2.75c0,0,2.346-3.083,7.458-3.833c10.917-1.604,5.54,5.214-2.167,8.282
			c0,0,9.165,44.031-14.261,59.268"/>
		<path style="fill:#353C73;" d="M65.922,273.708c2.502,1.691,5.542,2.854,9.222,3.293c7.394,0.882,13.892,0.322,19.055-3.464
			l3.66,9.848c-2.044,1.33-4.336,2.44-6.905,3.283l9.857,30.666c0,0-15.333,7.334-35.333,1.334l3.67-32c0,0-3.612-0.637-7.915-3.474
			L65.922,273.708z"/>
		<path style="fill:#FBADB1;" d="M84.484,266.251c0,0-1.75,8,3.75,10.75c0,0-1.5,4-7.5,4h0.325c-6,0-7.5-4-7.5-4
			c5.5-2.75,3.75-10.75,3.75-10.75H84.484z"/>
		<path style="fill:#FBADB1;" d="M92.647,254.751c0,8.146-4.413,15.499-11.751,15.499c-7.337,0-11.749-7.353-11.749-15.499
			c0-8.146,5.26-14.75,11.75-14.75C87.385,240.001,92.647,246.605,92.647,254.751z"/>
		<path style="fill:#2A4F9A;" d="M70.406,261.39c0,0-1.653-14.525,4.847-14.79c6.5-0.265,14.583,6.568,21-0.598
			c0,0-3,0.598-5.833-3.25c-3.01-4.088-12.167-7.416-20,0.084C61.498,251.377,70.406,261.39,70.406,261.39z"/>
	</g>
	<g>
		
			<line style="fill:none;stroke:#353C73;stroke-width:1.5;stroke-miterlimit:10;" x1="353.28" y1="260.693" x2="377.28" y2="423.693"/>
		
			<line style="fill:none;stroke:#353C73;stroke-width:1.5;stroke-miterlimit:10;" x1="397.78" y1="260.693" x2="421.78" y2="423.693"/>
		
			<line style="fill:none;stroke:#353C73;stroke-width:1.5;stroke-miterlimit:10;" x1="355.495" y1="275.735" x2="399.995" y2="275.735"/>
		
			<line style="fill:none;stroke:#353C73;stroke-width:1.5;stroke-miterlimit:10;" x1="358.495" y1="295.735" x2="402.995" y2="295.735"/>
		
			<line style="fill:none;stroke:#353C73;stroke-width:1.5;stroke-miterlimit:10;" x1="361.495" y1="315.735" x2="406.206" y2="315.735"/>
		
			<line style="fill:none;stroke:#353C73;stroke-width:1.5;stroke-miterlimit:10;" x1="364.495" y1="335.735" x2="408.995" y2="335.735"/>
		
			<line style="fill:none;stroke:#353C73;stroke-width:1.5;stroke-miterlimit:10;" x1="367.495" y1="355.735" x2="411.774" y2="355.735"/>
		
			<line style="fill:none;stroke:#353C73;stroke-width:1.5;stroke-miterlimit:10;" x1="370.495" y1="375.735" x2="414.719" y2="375.735"/>
		
			<line style="fill:none;stroke:#353C73;stroke-width:1.5;stroke-miterlimit:10;" x1="373.495" y1="395.735" x2="418.031" y2="395.735"/>
	</g>
	<polyline style="fill:none;stroke:#353C73;stroke-miterlimit:10;stroke-dasharray:6;" points="326.228,238.366 326.228,317.952 
		262.772,317.952 262.772,238.366 	"/>
	<g>
		<rect x="262.772" y="156.668" style="fill:#FFFFFF;" width="63.456" height="77.5"/>
		<path style="fill:#B7C1DA;" d="M287.045,178.043c0,5.662-4.59,10.252-10.252,10.252c-5.662,0-10.253-4.59-10.253-10.252
			s4.591-10.253,10.253-10.253C282.455,167.79,287.045,172.381,287.045,178.043z"/>
		<rect x="267.5" y="195.418" style="fill:#353C73;" width="54.956" height="5.25"/>
		<rect x="290.5" y="185.418" style="fill:#353C73;" width="31.956" height="5.25"/>
		<rect x="290.5" y="175.418" style="fill:#353C73;" width="31.956" height="5.25"/>
		<rect x="290.5" y="165.418" style="fill:#353C73;" width="31.956" height="5.25"/>
		<rect x="267.5" y="205.418" style="fill:#353C73;" width="54.956" height="5.25"/>
		<rect x="267.5" y="215.418" style="fill:#353C73;" width="54.956" height="5.25"/>
		<rect x="267.5" y="225.418" style="fill:#353C73;" width="54.956" height="5.25"/>
	</g>
	<g>
		<path style="fill:#353C73;" d="M312.861,112.752c-12.403-14.25,2.557-23.05-2.597-37.035
			c-4.133-11.216-15.043-10.073-15.952-9.549c0,0-11.68-1.666-15.813,9.549c-5.153,13.984,9.807,22.785-2.597,37.035"/>
		<path style="fill:#5686C4;" d="M272,120.97c0,0,1.766-13.968,22.383-13.968C315,107.002,317,120.97,317,120.97H272z"/>
		<path style="fill:#FBADB1;" d="M297.97,97.983c0,0-1.75,8,3.75,10.75c0,0-1.5,4-7.5,4h0.325c-6,0-7.5-4-7.5-4
			c5.5-2.75,3.75-10.75,3.75-10.75H297.97z"/>
		<ellipse style="fill:#FBADB1;" cx="294.383" cy="85.009" rx="11.75" ry="14.75"/>
		<path style="fill:#353C73;" d="M293.084,69.002c-8.042,0-9.577,8-9.577,8s2.601-2.728,4.98,0c2.376,2.727,4.463,0.833,5.189,0
			c0.726-0.834,3.993-2.417,6.098,0c2.108,2.416,3.661,1.934,5.346,0C305.119,77.002,304.917,69.002,293.084,69.002z"/>
		<path style="fill:#5686C4;" d="M285.756,107.994c0,0-30.755,5.674-15.422,48.674l7.177-2.691c0,0-8.844-21.645,8.245-35.642"/>
		<path style="fill:#5686C4;" d="M302.75,107.994c0,0,30.755,5.674,15.422,48.674l-7.177-2.691c0,0,8.844-21.645-8.245-35.642"/>
		<path style="fill:#FBADB1;" d="M270.334,156.668c0,0,3.166,11.5,7.416,11.5s1.5-8.5,1.5-8.5s1.75,2.5,3,0.5
			c0,0,1.021-3.633-4.739-6.191L270.334,156.668z"/>
		<path style="fill:#FBADB1;" d="M318.172,156.668c0,0-3.166,11.5-7.416,11.5s-1.5-8.5-1.5-8.5s-1.75,2.5-3,0.5
			c0,0-1.022-3.633,4.739-6.191L318.172,156.668z"/>
	</g>
	<g>
		<g>
			<line style="fill:none;stroke:#353C73;stroke-miterlimit:10;" x1="146.25" y1="213.25" x2="149.25" y2="213.25"/>
			
				<line style="fill:none;stroke:#353C73;stroke-miterlimit:10;stroke-dasharray:6.1,6.1;" x1="155.35" y1="213.25" x2="237.7" y2="213.25"/>
			<polyline style="fill:none;stroke:#353C73;stroke-miterlimit:10;" points="240.75,213.25 243.75,213.25 243.75,210.25 			"/>
			
				<line style="fill:none;stroke:#353C73;stroke-miterlimit:10;stroke-dasharray:6.6429,6.6429;" x1="243.75" y1="203.607" x2="243.75" y2="167.071"/>
			<polyline style="fill:none;stroke:#353C73;stroke-miterlimit:10;" points="243.75,163.75 243.75,160.75 240.75,160.75 			"/>
			
				<line style="fill:none;stroke:#353C73;stroke-miterlimit:10;stroke-dasharray:5.6912,5.6912;" x1="235.059" y1="160.75" x2="146.846" y2="160.75"/>
			<line style="fill:none;stroke:#353C73;stroke-miterlimit:10;" x1="144" y1="160.75" x2="141" y2="160.75"/>
		</g>
	</g>
	<g>
		
			<rect x="51.549" y="167.958" transform="matrix(0.9945 -0.1045 0.1045 0.9945 -19.6368 11.1146)" style="fill:#B7C1DA;" width="89.406" height="50"/>
		
			<rect x="63.154" y="207.757" transform="matrix(0.9945 -0.1045 0.1045 0.9945 -21.4177 11.163)" style="fill:#5686C4;" width="65.344" height="4.454"/>
		
			<rect x="95.481" y="194.707" transform="matrix(0.9945 -0.1045 0.1045 0.9945 -19.9446 13.1953)" style="fill:#5686C4;" width="40.946" height="4.454"/>
		
			<rect x="94.481" y="184.707" transform="matrix(0.9945 -0.1045 0.1045 0.9945 -18.9051 13.0361)" style="fill:#5686C4;" width="40.946" height="4.454"/>
		
			<rect x="93.481" y="174.707" transform="matrix(0.9945 -0.1045 0.1045 0.9945 -17.8655 12.8768)" style="fill:#5686C4;" width="40.946" height="4.454"/>
		
			<rect x="56.186" y="175.967" transform="matrix(0.9945 -0.1045 0.1045 0.9945 -18.8612 7.9524)" style="fill:#353C73;" width="20.528" height="15.963"/>
		
			<rect x="69.925" y="183.217" transform="matrix(0.9945 -0.1045 0.1045 0.9945 -19.5437 9.428)" style="fill:#FBADB1;" width="20.528" height="15.963"/>
	</g>
	<g>
		
			<rect x="342.892" y="181.399" transform="matrix(0.0777 -0.997 0.997 0.0777 130.7671 569.1873)" style="fill:#2A4F9A;" width="60.252" height="65.035"/>
		
			<rect x="348.5" y="167.791" transform="matrix(0.9948 -0.1015 0.1015 0.9948 -18.1136 39.6773)" style="fill:#5686C4;" width="65.035" height="60.252"/>
		<circle style="fill:#FFFFFF;" cx="377.5" cy="168.168" r="7.35"/>
		<path style="fill:#FBADB1;" d="M387.53,172.58c0,3.034-2.46,5.495-5.495,5.495c-3.035,0-5.495-2.46-5.495-5.495
			c0-3.035,2.46-5.495,5.495-5.495C385.07,167.085,387.53,169.545,387.53,172.58z"/>
		<line style="fill:none;stroke:#353C73;stroke-miterlimit:10;" x1="353" y1="182.58" x2="406.146" y2="178.043"/>
		<line style="fill:none;stroke:#353C73;stroke-miterlimit:10;" x1="354.444" y1="195.227" x2="407.591" y2="190.69"/>
		<line style="fill:none;stroke:#353C73;stroke-miterlimit:10;" x1="355.462" y1="206.623" x2="408.608" y2="202.086"/>
		<line style="fill:none;stroke:#353C73;stroke-miterlimit:10;" x1="357.462" y1="217.623" x2="410.608" y2="213.086"/>
	</g>
	
		<rect x="341" y="254.751" style="fill:none;stroke:#353C73;stroke-miterlimit:10;stroke-dasharray:6;" width="70.5" height="63.201"/>
	<g>
		<rect x="169.666" y="234.168" style="fill:#5686C4;" width="74.084" height="74.084"/>
		<path style="fill:#FBADB1;" d="M202.946,249.303c0,5.136-4.164,9.301-9.301,9.301c-5.137,0-9.301-4.165-9.301-9.301
			c0-5.138,4.164-9.302,9.301-9.302C198.782,240.001,202.946,244.165,202.946,249.303z"/>
		<path style="fill:#FFFFFF;" d="M198.355,270.295h-2.383c0.01-0.094,0.028-0.185,0.028-0.282c0-1.478-1.199-2.678-2.678-2.678
			h-6.395c-1.479,0-2.678,1.199-2.678,2.678c0,0.097,0.019,0.189,0.028,0.282h-0.383c-1.323,0-2.395,1.072-2.395,2.396
			c0,1.322,1.072,2.395,2.395,2.395h14.46c1.323,0,2.395-1.072,2.395-2.395C200.75,271.367,199.678,270.295,198.355,270.295z"/>
		<path style="fill:#FFFFFF;" d="M230.5,255.634h-3.158c0.015-0.107,0.033-0.213,0.033-0.324c0-1.284-1.041-2.324-2.324-2.324
			h-4.352c-1.284,0-2.324,1.04-2.324,2.324c0,0.123,0.018,0.241,0.036,0.358c-1.149,0.166-2.036,1.146-2.036,2.341
			c0,1.312,1.063,2.375,2.375,2.375h11.75c1.311,0,2.375-1.063,2.375-2.375C232.875,256.697,231.811,255.634,230.5,255.634z"/>
		<path style="fill:#2A4F9A;" d="M169.666,284.75c0,0,16.084-2.25,40.584,3.25s33.5-4.826,33.5-4.826v25.078h-74.084V284.75z"/>
	</g>
	<g>
		<g>
			<path style="fill:#5686C4;" d="M421.175,369.535c0,0-10.298-18.618-0.57-19.533c4.369-0.412,9.043,9.614,9.043,9.614
				s4.73-71.264,32.81-71.264c28.079,0-15.26,65.312-15.26,65.312s14.648-13.428,20.754-7.935
				c6.105,5.493-17.092,17.091-17.092,17.091s16.482-4.272,16.482,6.715H421.175z"/>
			<line style="fill:none;stroke:#353C73;stroke-miterlimit:10;" x1="460.333" y1="297.668" x2="435.32" y2="369.472"/>
			<line style="fill:none;stroke:#353C73;stroke-miterlimit:10;" x1="443.416" y1="321.334" x2="447.826" y2="333.57"/>
			<line style="fill:none;stroke:#353C73;stroke-miterlimit:10;" x1="422.535" y1="355.918" x2="429.833" y2="369.472"/>
			<line style="fill:none;stroke:#353C73;stroke-miterlimit:10;" x1="460.333" y1="349.644" x2="435.32" y2="369.472"/>
		</g>
		<line style="fill:none;stroke:#353C73;stroke-miterlimit:10;" x1="454.749" y1="313.696" x2="465.667" y2="305.334"/>
	</g>
	<line style="fill:none;stroke:#353C73;stroke-miterlimit:10;" x1="47.5" y1="362.462" x2="51.964" y2="362.462"/>
	<g>
		<polygon style="fill:#C6D8ED;" points="178.653,401.148 118.592,410.477 143.818,425.505 204.666,415.601 		"/>
		<polygon style="fill:#B7C1DA;" points="118.592,410.477 118.592,415.75 143.25,431.25 204.666,421.363 204.666,415.601 
			143.818,425.505 		"/>
		<polyline style="fill:none;stroke:#2A4F9A;stroke-miterlimit:10;" points="123.157,416.196 143.818,428.505 202.068,419.023 		"/>
	</g>
	<path style="fill:#B7C1DA;" d="M180.887,460.039c0,0,8.677,3.08,22.732,0c0,0-0.861-12.539-11.76-12.539
		C180.958,447.5,180.887,460.039,180.887,460.039z"/>
	<g>
		<path style="fill:#353C73;" d="M107.728,446c0,0.252-0.347,0.457-0.775,0.457c-0.428,0-0.775-0.205-0.775-0.457
			c0-0.253,0.347-0.458,0.775-0.458C107.382,445.542,107.728,445.747,107.728,446z"/>
		<path style="fill:#353C73;" d="M116.129,450.7c0,0.359-0.494,0.651-1.105,0.651c-0.611,0-1.105-0.292-1.105-0.651
			c0-0.361,0.494-0.653,1.105-0.653C115.635,450.047,116.129,450.339,116.129,450.7z"/>
	</g>
	<g>
		<path style="fill:#353C73;" d="M41.667,406.309c0,0.44-0.605,0.798-1.352,0.798c-0.747,0-1.353-0.357-1.353-0.798
			c0-0.441,0.605-0.799,1.353-0.799C41.062,405.51,41.667,405.867,41.667,406.309z"/>
		<path style="fill:#353C73;" d="M37.246,415.379c0,0.321-0.441,0.582-0.987,0.582c-0.545,0-0.986-0.261-0.986-0.582
			c0-0.321,0.441-0.583,0.986-0.583C36.805,414.796,37.246,415.058,37.246,415.379z"/>
		<path style="fill:#353C73;" d="M47.978,411.478c0,0.581-0.798,1.053-1.783,1.053c-0.985,0-1.784-0.472-1.784-1.053
			c0-0.582,0.798-1.054,1.784-1.054C47.18,410.424,47.978,410.896,47.978,411.478z"/>
	</g>
	<path style="fill:#353C73;" d="M243.112,445c0,0.727-0.999,1.316-2.229,1.316c-1.231,0-2.229-0.59-2.229-1.316
		c0-0.728,0.998-1.317,2.229-1.317C242.114,443.683,243.112,444.272,243.112,445z"/>
	<g>
		<path style="fill:#353C73;" d="M225.108,405.511c0,0.252-0.347,0.457-0.775,0.457c-0.428,0-0.775-0.205-0.775-0.457
			c0-0.253,0.347-0.458,0.775-0.458C224.762,405.053,225.108,405.258,225.108,405.511z"/>
		<path style="fill:#353C73;" d="M210.275,395.141c0,0.581-0.798,1.053-1.783,1.053c-0.985,0-1.784-0.472-1.784-1.053
			c0-0.582,0.798-1.054,1.784-1.054C209.477,394.087,210.275,394.559,210.275,395.141z"/>
		<path style="fill:#353C73;" d="M204.707,399.621c0,0.354-0.488,0.643-1.089,0.643c-0.602,0-1.09-0.288-1.09-0.643
			c0-0.355,0.488-0.644,1.09-0.644C204.22,398.978,204.707,399.266,204.707,399.621z"/>
	</g>
	<g>
		<path style="fill:#353C73;" d="M358.137,455.096c0,0.429-0.591,0.777-1.317,0.777c-0.727,0-1.315-0.349-1.315-0.777
			c0-0.43,0.588-0.777,1.315-0.777C357.546,454.318,358.137,454.666,358.137,455.096z"/>
		<path style="fill:#353C73;" d="M365.113,448.439c0,0.335-0.461,0.606-1.028,0.606c-0.567,0-1.026-0.271-1.026-0.606
			c0-0.335,0.459-0.607,1.026-0.607C364.652,447.832,365.113,448.103,365.113,448.439z"/>
	</g>
	<g>
		<path style="fill:#353C73;" d="M284.602,429.267c0,0.496-0.683,0.899-1.523,0.899c-0.842,0-1.523-0.403-1.523-0.899
			c0-0.497,0.681-0.899,1.523-0.899C283.92,428.367,284.602,428.77,284.602,429.267z"/>
		<path style="fill:#353C73;" d="M288.665,433.408c0,0.287-0.396,0.521-0.882,0.521c-0.487,0-0.882-0.233-0.882-0.521
			c0-0.288,0.395-0.522,0.882-0.522C288.27,432.887,288.665,433.12,288.665,433.408z"/>
	</g>
	<g>
		<path style="fill:#353C73;" d="M347.119,386.058c0,0.581-0.799,1.053-1.783,1.053c-0.985,0-1.783-0.472-1.783-1.053
			c0-0.582,0.798-1.054,1.783-1.054C346.32,385.004,347.119,385.476,347.119,386.058z"/>
		<path style="fill:#353C73;" d="M353,394.088c0,0.287-0.396,0.521-0.882,0.521c-0.487,0-0.882-0.233-0.882-0.521
			c0-0.288,0.395-0.521,0.882-0.521C352.604,393.566,353,393.8,353,394.088z"/>
	</g>
</g>
<g id="DESIGNED_BY_FREEPIK">
	<g id="XMLID_76_">
		<g id="XMLID_929_">
			<path id="XMLID_958_" style="fill:#2A4F9A;" d="M181.087,472.134c-0.246,0-0.435,0.085-0.567,0.255
				c-0.133,0.17-0.199,0.421-0.199,0.753v2.393c-0.304-0.332-0.617-0.579-0.937-0.739c-0.321-0.159-0.715-0.24-1.182-0.24
				c-0.807,0-1.458,0.283-1.953,0.849c-0.494,0.566-0.742,1.355-0.742,2.369c0,0.479,0.063,0.923,0.188,1.335
				c0.124,0.412,0.307,0.77,0.549,1.074c0.241,0.305,0.526,0.539,0.857,0.703c0.33,0.164,0.689,0.246,1.078,0.246
				c0.293,0,0.563-0.04,0.809-0.122c0.247-0.08,0.477-0.199,0.689-0.356c0.212-0.155,0.426-0.358,0.644-0.607v0.16
				c0,0.297,0.072,0.525,0.217,0.685c0.145,0.16,0.328,0.24,0.549,0.24c0.226,0,0.409-0.077,0.552-0.231
				c0.143-0.154,0.213-0.386,0.213-0.694v-7.147c0-0.305-0.066-0.534-0.199-0.69C181.52,472.212,181.332,472.134,181.087,472.134z
				 M180.021,478.975c-0.141,0.306-0.329,0.533-0.563,0.682c-0.236,0.148-0.496,0.223-0.781,0.223c-0.28,0-0.539-0.078-0.777-0.236
				c-0.237-0.154-0.424-0.387-0.561-0.695c-0.136-0.31-0.205-0.683-0.205-1.122c0-0.415,0.063-0.78,0.193-1.096
				c0.128-0.314,0.31-0.556,0.543-0.724c0.233-0.168,0.499-0.252,0.795-0.252c0.285,0,0.547,0.082,0.787,0.245
				c0.239,0.165,0.429,0.402,0.569,0.713c0.141,0.311,0.21,0.682,0.21,1.113C180.232,478.283,180.163,478.667,180.021,478.975z"/>
			<path id="XMLID_954_" style="fill:#2A4F9A;" d="M188.452,478.054c0.233-0.122,0.35-0.385,0.35-0.793
				c0-0.438-0.113-0.87-0.338-1.294c-0.225-0.423-0.564-0.769-1.019-1.035c-0.453-0.268-0.996-0.399-1.628-0.399
				c-0.487,0-0.93,0.077-1.33,0.233c-0.4,0.156-0.737,0.381-1.01,0.674c-0.272,0.293-0.48,0.643-0.623,1.054
				c-0.143,0.409-0.213,0.853-0.213,1.332c0,1.017,0.289,1.822,0.867,2.415c0.577,0.593,1.387,0.891,2.427,0.891
				c0.456,0,0.858-0.06,1.207-0.178c0.352-0.12,0.641-0.268,0.874-0.448c0.231-0.181,0.404-0.368,0.519-0.565
				c0.115-0.196,0.172-0.366,0.172-0.514c0-0.166-0.052-0.294-0.155-0.386c-0.103-0.09-0.237-0.137-0.403-0.137
				c-0.154,0-0.273,0.036-0.356,0.107c-0.203,0.19-0.366,0.34-0.492,0.451s-0.265,0.216-0.415,0.313
				c-0.15,0.098-0.305,0.167-0.466,0.214c-0.16,0.044-0.337,0.067-0.531,0.067c-0.289,0-0.553-0.07-0.792-0.213
				c-0.239-0.143-0.432-0.355-0.576-0.636c-0.144-0.281-0.219-0.605-0.222-0.974h3.168
				C187.89,478.234,188.219,478.174,188.452,478.054z M184.297,477.315c0.055-0.547,0.212-0.96,0.472-1.238
				c0.259-0.28,0.59-0.418,0.994-0.418c0.423,0,0.764,0.137,1.024,0.411c0.259,0.275,0.409,0.69,0.448,1.245H184.297z"/>
			<path id="XMLID_952_" style="fill:#2A4F9A;" d="M193.878,477.617c-0.319-0.17-0.729-0.316-1.231-0.439
				c-0.424-0.104-0.756-0.19-0.997-0.261c-0.242-0.07-0.434-0.161-0.576-0.27c-0.143-0.108-0.213-0.247-0.213-0.418
				c0-0.186,0.097-0.342,0.291-0.465c0.194-0.126,0.437-0.188,0.73-0.188c0.286,0,0.511,0.047,0.677,0.142
				c0.166,0.096,0.31,0.223,0.433,0.381c0.151,0.189,0.284,0.331,0.401,0.426c0.116,0.096,0.258,0.144,0.424,0.144
				c0.23,0,0.407-0.061,0.532-0.178c0.124-0.119,0.187-0.271,0.187-0.457c0-0.171-0.058-0.345-0.175-0.523
				c-0.116-0.178-0.286-0.34-0.51-0.485c-0.223-0.147-0.502-0.265-0.837-0.351c-0.333-0.088-0.71-0.131-1.13-0.131
				c-0.535,0-0.99,0.085-1.367,0.259c-0.378,0.172-0.665,0.402-0.859,0.69c-0.194,0.289-0.291,0.597-0.291,0.92
				c0,0.364,0.105,0.671,0.315,0.921c0.21,0.249,0.489,0.45,0.839,0.602c0.351,0.152,0.804,0.298,1.362,0.435
				c0.494,0.12,0.849,0.244,1.066,0.375c0.216,0.131,0.323,0.338,0.323,0.622c0,0.187-0.104,0.352-0.311,0.497
				c-0.208,0.144-0.474,0.216-0.798,0.216c-0.4,0-0.715-0.07-0.947-0.213c-0.232-0.144-0.431-0.357-0.597-0.647
				c-0.082-0.149-0.169-0.267-0.261-0.351c-0.091-0.082-0.221-0.124-0.39-0.124c-0.194,0-0.355,0.064-0.481,0.19
				c-0.128,0.126-0.191,0.278-0.191,0.456c0,0.27,0.099,0.537,0.296,0.805c0.198,0.267,0.505,0.489,0.92,0.667
				c0.415,0.179,0.914,0.268,1.495,0.268c0.609,0,1.127-0.082,1.552-0.246c0.425-0.164,0.747-0.405,0.964-0.725
				c0.218-0.318,0.326-0.701,0.326-1.148c0-0.297-0.081-0.56-0.246-0.792C194.438,477.988,194.196,477.787,193.878,477.617z"/>
			<path id="XMLID_950_" style="fill:#2A4F9A;" d="M196.486,474.543c-0.238,0-0.431,0.081-0.579,0.243
				c-0.149,0.162-0.222,0.404-0.222,0.724v4.636c0,0.316,0.073,0.56,0.222,0.73c0.148,0.17,0.341,0.255,0.579,0.255
				c0.238,0,0.433-0.083,0.588-0.249c0.154-0.166,0.232-0.412,0.232-0.736v-4.683c0-0.288-0.078-0.515-0.232-0.677
				C196.919,474.624,196.724,474.543,196.486,474.543z"/>
			<path id="XMLID_949_" style="fill:#2A4F9A;" d="M196.504,472.204c-0.217,0-0.409,0.073-0.573,0.223
				c-0.165,0.149-0.246,0.337-0.246,0.567c0,0.254,0.08,0.449,0.24,0.588c0.16,0.138,0.353,0.208,0.579,0.208
				c0.217,0,0.405-0.071,0.563-0.212c0.158-0.14,0.238-0.335,0.238-0.584c0-0.258-0.081-0.453-0.244-0.588
				C196.9,472.272,196.714,472.204,196.504,472.204z"/>
			<path id="XMLID_945_" style="fill:#2A4F9A;" d="M203.626,474.543c-0.217,0-0.396,0.077-0.535,0.231
				c-0.139,0.154-0.208,0.372-0.208,0.652v0.221c-0.289-0.376-0.602-0.651-0.938-0.829c-0.337-0.175-0.734-0.264-1.193-0.264
				c-0.384,0-0.736,0.068-1.056,0.204c-0.321,0.138-0.604,0.34-0.849,0.609c-0.245,0.268-0.433,0.599-0.566,0.991
				c-0.133,0.392-0.199,0.831-0.199,1.317c0,0.653,0.108,1.228,0.327,1.728c0.217,0.498,0.529,0.886,0.934,1.163
				c0.406,0.276,0.88,0.415,1.422,0.415c0.45,0,0.839-0.091,1.166-0.272c0.327-0.182,0.614-0.447,0.864-0.797
				c-0.008,0.531-0.02,0.916-0.036,1.155c-0.016,0.24-0.07,0.465-0.164,0.674c-0.093,0.209-0.255,0.373-0.486,0.489
				c-0.232,0.117-0.557,0.176-0.977,0.176c-0.205,0-0.387-0.02-0.545-0.057c-0.159-0.038-0.294-0.095-0.406-0.171
				c-0.112-0.078-0.216-0.171-0.309-0.28c-0.093-0.108-0.183-0.217-0.27-0.323c-0.178-0.21-0.386-0.315-0.624-0.315
				c-0.189,0-0.352,0.062-0.486,0.188c-0.135,0.123-0.202,0.284-0.202,0.482c0,0.262,0.119,0.516,0.356,0.764
				c0.238,0.247,0.576,0.448,1.014,0.605c0.439,0.155,0.938,0.233,1.496,0.233c0.609,0,1.119-0.061,1.528-0.184
				c0.409-0.122,0.741-0.311,0.994-0.563c0.253-0.254,0.438-0.574,0.551-0.961c0.115-0.389,0.173-0.852,0.173-1.39v-4.706
				c0-0.384-0.051-0.678-0.155-0.882C204.146,474.646,203.938,474.543,203.626,474.543z M202.6,478.908
				c-0.151,0.291-0.346,0.508-0.586,0.653c-0.239,0.144-0.493,0.217-0.762,0.217c-0.455,0-0.826-0.168-1.113-0.505
				c-0.287-0.336-0.431-0.834-0.431-1.49c0-0.648,0.139-1.149,0.419-1.501c0.279-0.352,0.649-0.528,1.113-0.528
				c0.475,0,0.858,0.184,1.148,0.553c0.291,0.367,0.437,0.882,0.437,1.542C202.825,478.265,202.749,478.617,202.6,478.908z"/>
			<path id="XMLID_944_" style="fill:#2A4F9A;" d="M210.978,475.61c-0.165-0.339-0.418-0.602-0.753-0.788
				c-0.337-0.187-0.718-0.279-1.146-0.279c-0.439,0-0.828,0.088-1.166,0.264c-0.338,0.177-0.65,0.452-0.935,0.828v-0.195
				c0-0.193-0.034-0.358-0.104-0.493c-0.069-0.134-0.162-0.234-0.276-0.302c-0.114-0.068-0.244-0.102-0.387-0.102
				c-0.233,0-0.416,0.076-0.552,0.229c-0.134,0.152-0.201,0.383-0.201,0.691v4.683c0,0.316,0.076,0.56,0.226,0.73
				c0.15,0.17,0.342,0.255,0.576,0.255c0.241,0,0.438-0.082,0.59-0.246c0.152-0.164,0.228-0.411,0.228-0.739v-2.03
				c0-0.66,0.04-1.11,0.119-1.353c0.11-0.3,0.284-0.537,0.522-0.71c0.237-0.172,0.5-0.258,0.788-0.258
				c0.444,0,0.74,0.143,0.888,0.425c0.148,0.282,0.223,0.691,0.223,1.226v2.7c0,0.316,0.074,0.56,0.226,0.73
				c0.15,0.17,0.346,0.255,0.587,0.255c0.238,0,0.431-0.083,0.578-0.249c0.149-0.166,0.224-0.412,0.224-0.736v-3.016
				c0-0.357-0.017-0.648-0.048-0.878C211.155,476.023,211.085,475.809,210.978,475.61z"/>
			<path id="XMLID_939_" style="fill:#2A4F9A;" d="M217.821,478.054c0.233-0.122,0.35-0.385,0.35-0.793
				c0-0.438-0.113-0.87-0.338-1.294c-0.226-0.423-0.565-0.769-1.019-1.035c-0.453-0.268-0.996-0.399-1.628-0.399
				c-0.487,0-0.93,0.077-1.33,0.233c-0.4,0.156-0.736,0.381-1.009,0.674c-0.273,0.293-0.481,0.643-0.624,1.054
				c-0.142,0.409-0.213,0.853-0.213,1.332c0,1.017,0.289,1.822,0.866,2.415c0.578,0.593,1.387,0.891,2.428,0.891
				c0.455,0,0.858-0.06,1.208-0.178c0.351-0.12,0.64-0.268,0.872-0.448c0.232-0.181,0.405-0.368,0.52-0.565
				c0.114-0.196,0.172-0.366,0.172-0.514c0-0.166-0.051-0.294-0.154-0.386c-0.103-0.09-0.238-0.137-0.404-0.137
				c-0.154,0-0.273,0.036-0.356,0.107c-0.201,0.19-0.366,0.34-0.492,0.451c-0.128,0.111-0.266,0.216-0.415,0.313
				c-0.151,0.098-0.307,0.167-0.466,0.214c-0.161,0.044-0.338,0.067-0.532,0.067c-0.288,0-0.553-0.07-0.792-0.213
				c-0.239-0.143-0.431-0.355-0.575-0.636c-0.145-0.281-0.219-0.605-0.223-0.974h3.169
				C217.26,478.234,217.588,478.174,217.821,478.054z M213.666,477.315c0.056-0.547,0.212-0.96,0.471-1.238
				c0.259-0.28,0.591-0.418,0.995-0.418c0.423,0,0.765,0.137,1.024,0.411c0.259,0.275,0.409,0.69,0.448,1.245H213.666z"/>
			<path id="XMLID_936_" style="fill:#2A4F9A;" d="M224.206,472.134c-0.245,0-0.434,0.085-0.567,0.255
				c-0.132,0.17-0.199,0.421-0.199,0.753v2.393c-0.304-0.332-0.617-0.579-0.938-0.739c-0.32-0.159-0.714-0.24-1.181-0.24
				c-0.808,0-1.458,0.283-1.953,0.849c-0.495,0.566-0.741,1.355-0.741,2.369c0,0.479,0.062,0.923,0.187,1.335
				c0.125,0.412,0.308,0.77,0.549,1.074c0.241,0.305,0.527,0.539,0.857,0.703c0.33,0.164,0.689,0.246,1.077,0.246
				c0.293,0,0.563-0.04,0.81-0.122c0.248-0.08,0.476-0.199,0.689-0.356c0.211-0.155,0.426-0.358,0.643-0.607v0.16
				c0,0.297,0.072,0.525,0.217,0.685c0.145,0.16,0.328,0.24,0.549,0.24c0.226,0,0.41-0.077,0.552-0.231
				c0.143-0.154,0.213-0.386,0.213-0.694v-7.147c0-0.305-0.065-0.534-0.199-0.69C224.641,472.212,224.452,472.134,224.206,472.134z
				 M223.141,478.975c-0.14,0.306-0.328,0.533-0.564,0.682c-0.235,0.148-0.495,0.223-0.781,0.223c-0.281,0-0.54-0.078-0.776-0.236
				c-0.238-0.154-0.425-0.387-0.562-0.695c-0.137-0.31-0.205-0.683-0.205-1.122c0-0.415,0.064-0.78,0.193-1.096
				c0.129-0.314,0.31-0.556,0.543-0.724c0.233-0.168,0.499-0.252,0.795-0.252c0.285,0,0.547,0.082,0.787,0.245
				c0.239,0.165,0.43,0.402,0.57,0.713c0.14,0.311,0.21,0.682,0.21,1.113C223.352,478.283,223.281,478.667,223.141,478.975z"/>
			<path id="XMLID_933_" style="fill:#2A4F9A;" d="M233.586,474.938c-0.406-0.255-0.877-0.383-1.415-0.383
				c-0.467,0-0.859,0.084-1.175,0.252c-0.317,0.168-0.627,0.411-0.932,0.728v-2.476c0-0.297-0.068-0.524-0.202-0.686
				c-0.135-0.159-0.326-0.239-0.576-0.239c-0.237,0-0.423,0.084-0.555,0.252c-0.133,0.168-0.198,0.416-0.198,0.744v7.075
				c0,0.305,0.068,0.535,0.205,0.692c0.136,0.156,0.319,0.233,0.549,0.233c0.226,0,0.412-0.077,0.558-0.233
				c0.146-0.157,0.22-0.388,0.22-0.692v-0.16c0.178,0.205,0.322,0.36,0.43,0.463c0.109,0.103,0.241,0.203,0.395,0.3
				c0.154,0.098,0.341,0.175,0.561,0.234c0.22,0.06,0.454,0.089,0.704,0.089c0.407,0,0.781-0.082,1.119-0.246
				c0.338-0.164,0.626-0.397,0.864-0.698c0.237-0.3,0.418-0.655,0.543-1.064c0.124-0.41,0.187-0.859,0.187-1.35
				c0-0.665-0.112-1.241-0.336-1.725C234.305,475.564,233.991,475.193,233.586,474.938z M232.796,479.348
				c-0.295,0.354-0.646,0.531-1.053,0.531c-0.479,0-0.866-0.174-1.161-0.521c-0.295-0.346-0.442-0.841-0.442-1.486
				c0-0.44,0.069-0.818,0.207-1.136c0.138-0.319,0.328-0.563,0.57-0.73c0.24-0.168,0.516-0.252,0.825-0.252
				c0.3,0,0.563,0.084,0.789,0.252c0.225,0.168,0.399,0.406,0.521,0.716c0.123,0.308,0.184,0.677,0.184,1.103
				C233.238,478.486,233.09,478.993,232.796,479.348z"/>
			<path id="XMLID_931_" style="fill:#2A4F9A;" d="M240.529,474.641c-0.112-0.065-0.23-0.098-0.353-0.098
				c-0.171,0-0.302,0.029-0.395,0.09c-0.093,0.058-0.181,0.173-0.264,0.344c-0.083,0.17-0.176,0.406-0.279,0.705l-1.3,3.71
				l-1.371-3.988c-0.091-0.277-0.195-0.489-0.314-0.638c-0.119-0.148-0.295-0.223-0.529-0.223c-0.135,0-0.264,0.035-0.389,0.107
				c-0.124,0.07-0.222,0.166-0.294,0.285c-0.071,0.117-0.107,0.246-0.107,0.385c0,0.131,0.062,0.341,0.184,0.629l1.995,5.022
				l-0.148,0.362c-0.111,0.265-0.208,0.466-0.294,0.601c-0.085,0.139-0.181,0.234-0.288,0.289c-0.107,0.056-0.254,0.084-0.44,0.084
				c-0.075,0-0.163-0.013-0.266-0.036c-0.083-0.024-0.168-0.036-0.256-0.036c-0.221,0-0.388,0.051-0.501,0.151
				c-0.113,0.101-0.169,0.245-0.169,0.431c0,0.272,0.119,0.461,0.356,0.564c0.237,0.103,0.593,0.153,1.068,0.153
				c0.487,0,0.873-0.073,1.161-0.223c0.287-0.147,0.517-0.361,0.691-0.638c0.174-0.277,0.353-0.659,0.535-1.146l2.113-5.531
				c0.051-0.143,0.095-0.283,0.13-0.421c0.037-0.14,0.061-0.246,0.078-0.321c0-0.123-0.032-0.239-0.093-0.35
				C240.729,474.794,240.642,474.706,240.529,474.641z"/>
		</g>
		<g id="XMLID_365_">
			<g id="XMLID_380_">
				<path id="XMLID_928_" style="fill:#2A4F9A;" d="M262.93,472.129c-0.533,0-0.954,0.068-1.26,0.204
					c-0.308,0.137-0.527,0.354-0.654,0.652c-0.13,0.301-0.191,0.702-0.191,1.211v0.487h-0.387c-0.543,0-0.815,0.191-0.815,0.582
					c0,0.174,0.065,0.315,0.196,0.423c0.132,0.111,0.316,0.164,0.559,0.164h0.446v4.294c0,0.318,0.074,0.563,0.228,0.729
					c0.154,0.17,0.344,0.254,0.573,0.254c0.243,0,0.438-0.084,0.589-0.254c0.155-0.167,0.23-0.411,0.23-0.729v-4.294h0.396
					c0.291,0,0.517-0.035,0.681-0.107c0.166-0.071,0.245-0.24,0.245-0.503c0-0.373-0.307-0.559-0.926-0.559h-0.396v-0.387
					c0-0.321,0.043-0.567,0.122-0.739c0.087-0.172,0.273-0.26,0.565-0.26c0.108,0,0.241,0.014,0.39,0.034
					c0.155,0.026,0.268,0.038,0.33,0.038c0.134,0,0.252-0.055,0.348-0.16c0.102-0.107,0.15-0.235,0.15-0.385
					C264.35,472.358,263.879,472.129,262.93,472.129z"/>
				<path id="XMLID_926_" style="fill:#2A4F9A;" d="M268.089,474.795c-0.32-0.171-0.648-0.255-0.99-0.255
					c-0.342,0-0.61,0.084-0.818,0.255c-0.202,0.171-0.4,0.421-0.592,0.755c-0.015-0.334-0.08-0.584-0.199-0.755
					c-0.119-0.171-0.313-0.255-0.583-0.255c-0.525,0-0.788,0.364-0.788,1.093v4.514c0,0.323,0.078,0.568,0.226,0.732
					c0.149,0.169,0.34,0.251,0.579,0.251c0.236,0,0.432-0.081,0.586-0.247c0.15-0.163,0.233-0.41,0.233-0.736v-1.356
					c0-0.486,0.014-0.899,0.045-1.238c0.033-0.337,0.09-0.631,0.17-0.878c0.084-0.243,0.201-0.425,0.353-0.554
					c0.149-0.122,0.345-0.186,0.582-0.186c0.172,0,0.374,0.036,0.602,0.108c0.227,0.073,0.371,0.112,0.434,0.112
					c0.157,0,0.304-0.064,0.44-0.194c0.135-0.126,0.204-0.292,0.204-0.488C268.571,475.192,268.411,474.966,268.089,474.795z"/>
				<path id="XMLID_922_" style="fill:#2A4F9A;" d="M274.176,478.052c0.233-0.122,0.351-0.385,0.351-0.791
					c0-0.44-0.112-0.87-0.339-1.296c-0.222-0.423-0.565-0.77-1.018-1.033c-0.453-0.27-0.997-0.403-1.629-0.403
					c-0.488,0-0.931,0.078-1.329,0.232c-0.402,0.157-0.735,0.381-1.008,0.675c-0.275,0.295-0.484,0.644-0.624,1.055
					c-0.145,0.41-0.218,0.854-0.218,1.333c0,1.017,0.293,1.823,0.87,2.418c0.576,0.593,1.385,0.889,2.429,0.889
					c0.453,0,0.857-0.061,1.207-0.179c0.349-0.117,0.64-0.269,0.874-0.446c0.232-0.182,0.404-0.368,0.522-0.566
					c0.111-0.194,0.167-0.365,0.167-0.512c0-0.167-0.048-0.294-0.152-0.386c-0.104-0.093-0.237-0.139-0.405-0.139
					c-0.152,0-0.271,0.038-0.355,0.108c-0.202,0.189-0.367,0.34-0.493,0.449c-0.128,0.113-0.264,0.218-0.415,0.313
					c-0.15,0.097-0.307,0.17-0.466,0.213c-0.16,0.048-0.336,0.069-0.531,0.069c-0.29,0-0.552-0.07-0.792-0.212
					c-0.24-0.145-0.431-0.357-0.578-0.636c-0.145-0.28-0.216-0.606-0.222-0.974h3.171
					C273.615,478.233,273.942,478.173,274.176,478.052z M270.02,477.313c0.055-0.546,0.213-0.957,0.472-1.236
					c0.26-0.28,0.592-0.418,0.995-0.418c0.426,0,0.764,0.136,1.024,0.412c0.261,0.273,0.407,0.688,0.446,1.242H270.02z"/>
				<path id="XMLID_919_" style="fill:#2A4F9A;" d="M280.916,478.052c0.232-0.122,0.352-0.385,0.352-0.791
					c0-0.44-0.116-0.87-0.341-1.296c-0.222-0.423-0.564-0.77-1.013-1.033c-0.46-0.27-1.003-0.403-1.634-0.403
					c-0.486,0-0.932,0.078-1.33,0.232c-0.4,0.157-0.736,0.381-1.009,0.675c-0.273,0.295-0.48,0.644-0.622,1.055
					c-0.145,0.41-0.218,0.854-0.218,1.333c0,1.017,0.291,1.823,0.868,2.418c0.58,0.593,1.387,0.889,2.43,0.889
					c0.453,0,0.859-0.061,1.208-0.179c0.348-0.117,0.641-0.269,0.872-0.446c0.234-0.182,0.408-0.368,0.518-0.566
					c0.116-0.194,0.171-0.365,0.171-0.512c0-0.167-0.047-0.294-0.15-0.386c-0.104-0.093-0.238-0.139-0.406-0.139
					c-0.151,0-0.27,0.038-0.355,0.108c-0.202,0.189-0.367,0.34-0.492,0.449c-0.127,0.113-0.264,0.218-0.415,0.313
					c-0.152,0.097-0.307,0.17-0.469,0.213c-0.157,0.048-0.335,0.069-0.527,0.069c-0.291,0-0.556-0.07-0.795-0.212
					c-0.238-0.145-0.431-0.357-0.575-0.636c-0.144-0.28-0.218-0.606-0.222-0.974h3.17
					C280.354,478.233,280.682,478.173,280.916,478.052z M276.762,477.313c0.053-0.546,0.211-0.957,0.47-1.236
					c0.261-0.28,0.592-0.418,0.995-0.418c0.425,0,0.764,0.136,1.026,0.412c0.257,0.273,0.407,0.688,0.446,1.242H276.762z"/>
				<path id="XMLID_390_" style="fill:#2A4F9A;" d="M286.927,474.938c-0.42-0.257-0.883-0.387-1.379-0.387
					c-0.415,0-0.79,0.09-1.114,0.268c-0.331,0.176-0.648,0.452-0.952,0.827v-0.194c0-0.297-0.071-0.52-0.218-0.678
					c-0.144-0.155-0.329-0.233-0.56-0.233c-0.233,0-0.419,0.078-0.554,0.228c-0.133,0.154-0.199,0.382-0.199,0.691v6.995
					c0,0.354,0.051,0.62,0.145,0.807c0.102,0.183,0.301,0.274,0.607,0.274c0.517,0,0.777-0.358,0.777-1.068v-2.434
					c0.286,0.358,0.586,0.635,0.9,0.817c0.314,0.187,0.704,0.279,1.166,0.279c0.385,0,0.741-0.076,1.079-0.228
					c0.334-0.152,0.622-0.372,0.868-0.653c0.245-0.283,0.44-0.632,0.58-1.05c0.14-0.418,0.21-0.878,0.21-1.376
					c0-0.677-0.122-1.261-0.366-1.758C287.676,475.571,287.346,475.195,286.927,474.938z M286.45,478.94
					c-0.137,0.313-0.32,0.546-0.552,0.704c-0.229,0.153-0.48,0.233-0.748,0.233c-0.454,0-0.828-0.179-1.133-0.536
					c-0.307-0.358-0.46-0.862-0.46-1.504c0-0.687,0.155-1.204,0.462-1.558c0.307-0.35,0.685-0.527,1.131-0.527
					c0.281,0,0.54,0.083,0.77,0.247c0.229,0.163,0.411,0.398,0.542,0.705c0.13,0.306,0.196,0.674,0.196,1.101
					C286.658,478.248,286.589,478.627,286.45,478.94z"/>
				<path id="XMLID_389_" style="fill:#2A4F9A;" d="M289.9,474.54c-0.238,0-0.428,0.079-0.58,0.244
					c-0.146,0.163-0.222,0.403-0.222,0.722v4.642c0,0.313,0.076,0.555,0.222,0.729c0.152,0.17,0.342,0.254,0.58,0.254
					s0.432-0.082,0.588-0.251c0.154-0.164,0.231-0.409,0.231-0.731v-4.688c0-0.286-0.077-0.512-0.231-0.675
					C290.332,474.619,290.139,474.54,289.9,474.54z"/>
				<path id="XMLID_388_" style="fill:#2A4F9A;" d="M289.917,472.199c-0.217,0-0.407,0.076-0.571,0.223
					c-0.166,0.149-0.247,0.339-0.247,0.568c0,0.253,0.08,0.447,0.242,0.586c0.158,0.138,0.35,0.209,0.576,0.209
					c0.22,0,0.408-0.071,0.566-0.21c0.157-0.14,0.236-0.335,0.236-0.585c0-0.257-0.082-0.454-0.244-0.591
					C290.314,472.267,290.13,472.199,289.917,472.199z"/>
				<path id="XMLID_387_" style="fill:#2A4F9A;" d="M297.258,479.569l-1.662-2.614l0.861-0.788c0.438-0.395,0.658-0.714,0.658-0.951
					c0-0.192-0.068-0.354-0.2-0.483c-0.138-0.128-0.306-0.192-0.509-0.192c-0.169,0-0.313,0.043-0.432,0.13
					c-0.121,0.086-0.29,0.251-0.517,0.486l-1.822,1.913v-3.933c0-0.329-0.074-0.581-0.221-0.751
					c-0.147-0.171-0.344-0.257-0.593-0.257c-0.256,0-0.457,0.093-0.596,0.283c-0.136,0.188-0.207,0.462-0.207,0.82v6.914
					c0,0.323,0.073,0.568,0.215,0.732c0.141,0.169,0.339,0.251,0.588,0.251c0.213,0,0.405-0.084,0.566-0.254
					c0.164-0.167,0.247-0.406,0.247-0.719v-1.29l0.88-0.83l1.428,2.352c0.182,0.278,0.329,0.472,0.435,0.58
					c0.107,0.109,0.261,0.16,0.459,0.16c0.226,0,0.412-0.073,0.553-0.222c0.142-0.15,0.214-0.351,0.214-0.609
					c0-0.089-0.029-0.189-0.082-0.288C297.47,479.909,297.379,479.765,297.258,479.569z"/>
				<path id="XMLID_386_" style="fill:#2A4F9A;" d="M299.45,479.343c-0.251,0-0.459,0.087-0.63,0.262
					c-0.171,0.173-0.257,0.381-0.257,0.622c0,0.287,0.091,0.51,0.269,0.665c0.179,0.159,0.389,0.238,0.633,0.238
					c0.237,0,0.444-0.079,0.624-0.241c0.175-0.157,0.264-0.38,0.264-0.662c0-0.243-0.089-0.454-0.264-0.626
					C299.909,479.43,299.698,479.343,299.45,479.343z"/>
				<path id="XMLID_385_" style="fill:#2A4F9A;" d="M306.835,478.416c-0.166,0-0.308,0.055-0.422,0.156
					c-0.113,0.104-0.219,0.245-0.318,0.427c-0.177,0.31-0.381,0.538-0.616,0.69c-0.23,0.149-0.509,0.225-0.834,0.225
					c-0.24,0-0.463-0.045-0.666-0.141c-0.201-0.094-0.372-0.229-0.516-0.409c-0.144-0.18-0.252-0.398-0.325-0.652
					c-0.075-0.256-0.114-0.537-0.114-0.842c0-0.646,0.147-1.161,0.44-1.533c0.293-0.375,0.682-0.561,1.158-0.561
					c0.333,0,0.606,0.075,0.82,0.227c0.219,0.147,0.425,0.376,0.623,0.674c0.108,0.158,0.209,0.27,0.299,0.339
					c0.09,0.069,0.201,0.104,0.338,0.104c0.202,0,0.377-0.068,0.524-0.203c0.143-0.135,0.214-0.3,0.214-0.491
					c0-0.192-0.062-0.397-0.192-0.617c-0.127-0.218-0.315-0.424-0.556-0.62c-0.245-0.192-0.54-0.352-0.891-0.474
					c-0.353-0.124-0.736-0.185-1.156-0.185c-0.674,0-1.26,0.139-1.747,0.419c-0.485,0.278-0.858,0.673-1.113,1.183
					c-0.259,0.511-0.387,1.098-0.387,1.765c0,0.982,0.281,1.765,0.841,2.35c0.563,0.582,1.345,0.876,2.349,0.876
					c0.469,0,0.894-0.065,1.269-0.191c0.377-0.126,0.688-0.295,0.935-0.503c0.248-0.207,0.434-0.425,0.553-0.655
					c0.122-0.23,0.183-0.446,0.183-0.647c0-0.169-0.066-0.331-0.198-0.481C307.198,478.493,307.033,478.416,306.835,478.416z"/>
				<path id="XMLID_382_" style="fill:#2A4F9A;" d="M313.646,475.453c-0.288-0.291-0.628-0.518-1.026-0.675
					c-0.4-0.16-0.847-0.238-1.336-0.238c-0.482,0-0.924,0.078-1.326,0.233c-0.398,0.158-0.737,0.38-1.02,0.669
					c-0.281,0.288-0.498,0.637-0.648,1.045c-0.146,0.408-0.225,0.857-0.225,1.349c0,0.485,0.076,0.93,0.22,1.332
					c0.151,0.401,0.369,0.75,0.657,1.048c0.284,0.292,0.626,0.521,1.016,0.676c0.393,0.159,0.835,0.239,1.326,0.239
					c0.492,0,0.937-0.08,1.336-0.234c0.394-0.157,0.735-0.382,1.02-0.675c0.286-0.291,0.502-0.642,0.656-1.05
					c0.145-0.408,0.222-0.854,0.222-1.336c0-0.488-0.075-0.932-0.221-1.339C314.148,476.096,313.933,475.749,313.646,475.453z
					 M312.455,479.368c-0.29,0.373-0.682,0.558-1.171,0.558c-0.324,0-0.604-0.086-0.846-0.253c-0.24-0.168-0.424-0.409-0.554-0.729
					c-0.129-0.316-0.193-0.685-0.193-1.108c0-0.428,0.066-0.803,0.197-1.124c0.13-0.321,0.314-0.564,0.556-0.728
					c0.242-0.163,0.522-0.245,0.84-0.245c0.489,0,0.881,0.182,1.171,0.555c0.289,0.367,0.436,0.881,0.436,1.542
					C312.891,478.486,312.744,478.999,312.455,479.368z"/>
				<path id="XMLID_381_" style="fill:#2A4F9A;" d="M323.569,474.814c-0.32-0.173-0.705-0.263-1.146-0.263
					c-0.38,0-0.726,0.081-1.038,0.241c-0.314,0.161-0.607,0.408-0.882,0.738c-0.191-0.326-0.431-0.572-0.725-0.735
					c-0.292-0.162-0.642-0.244-1.048-0.244c-0.395,0-0.748,0.079-1.07,0.241c-0.319,0.156-0.62,0.403-0.903,0.738v-0.153
					c0-0.261-0.073-0.466-0.221-0.616c-0.15-0.145-0.335-0.221-0.558-0.221c-0.226,0-0.412,0.078-0.556,0.238
					c-0.14,0.157-0.21,0.389-0.21,0.694v4.636c0,0.337,0.078,0.592,0.235,0.765c0.156,0.171,0.358,0.258,0.604,0.258
					c0.248,0,0.447-0.087,0.603-0.258c0.149-0.173,0.227-0.428,0.227-0.765v-2.189c0-0.683,0.086-1.206,0.253-1.566
					c0.169-0.369,0.517-0.55,1.048-0.55c0.264,0,0.459,0.071,0.582,0.22c0.121,0.142,0.197,0.33,0.226,0.552
					c0.027,0.226,0.04,0.544,0.04,0.952v2.581c0,0.342,0.078,0.594,0.232,0.768c0.148,0.17,0.35,0.255,0.595,0.255
					c0.254,0,0.454-0.085,0.61-0.255c0.156-0.174,0.23-0.426,0.23-0.768v-2.153c0-0.694,0.063-1.178,0.178-1.452
					c0.109-0.209,0.259-0.383,0.451-0.508c0.191-0.125,0.395-0.191,0.608-0.191c0.264,0,0.463,0.071,0.596,0.215
					c0.128,0.142,0.209,0.318,0.238,0.528c0.029,0.21,0.044,0.486,0.044,0.837v2.725c0,0.337,0.078,0.592,0.234,0.765
					c0.157,0.171,0.356,0.258,0.604,0.258c0.252,0,0.458-0.085,0.611-0.255c0.154-0.174,0.229-0.426,0.229-0.768v-3.163
					c0-0.629-0.068-1.091-0.206-1.386C324.128,475.237,323.889,474.987,323.569,474.814z"/>
			</g>
			<g id="XMLID_366_">
				<path id="XMLID_379_" style="fill:#2A4F9A;" d="M245.273,477.443c-0.001-0.003-0.001-0.006-0.001-0.011
					C245.272,477.438,245.272,477.44,245.273,477.443z"/>
				<path id="XMLID_378_" style="fill:#2A4F9A;" d="M245.355,477.961c0.001,0,0.001,0,0.001,0c-0.03-0.146-0.055-0.294-0.073-0.438
					C245.301,477.669,245.326,477.816,245.355,477.961z"/>
				<path id="XMLID_377_" style="fill:#2A4F9A;" d="M245.891,479.466c-0.003-0.007-0.006-0.014-0.01-0.021
					C245.885,479.452,245.888,479.459,245.891,479.466z"/>
				<path id="XMLID_376_" style="fill:#2A4F9A;" d="M245.84,479.365c-0.014-0.027-0.027-0.056-0.04-0.083
					C245.812,479.311,245.826,479.338,245.84,479.365z"/>
				<path id="XMLID_375_" style="fill:#2A4F9A;" d="M245.505,478.541c0.08,0.25,0.175,0.492,0.286,0.724
					c-0.113-0.236-0.206-0.478-0.284-0.724H245.505z"/>
				<path id="XMLID_374_" style="fill:#2A4F9A;" d="M250.736,470.682l-0.076-0.26c0.299-0.063,0.523-0.329,0.523-0.647
					c0-0.363-0.296-0.659-0.66-0.659c-0.365,0-0.66,0.296-0.66,0.659c0,0.317,0.225,0.584,0.522,0.647l0.084,0.289
					c-1.021,0.141-1.834,0.539-1.834,0.539l0.144,0.44c0.617-0.206,1.153-0.331,1.64-0.383c0.476-0.051,0.833-0.073,1.126-0.073
					c0.313,0,0.545,0.025,0.81,0.069l0.075-0.476C252.43,470.828,251.697,470.603,250.736,470.682z"/>
				<path id="XMLID_373_" style="fill:#2A4F9A;" d="M245.453,473.189c-0.017,0.023-0.497,0.465-0.876,1.279
					c-0.016-0.025-0.035-0.051-0.056-0.074c-0.114-0.124-0.272-0.188-0.474-0.184c-0.003,0-0.006,0-0.01,0
					c-0.124,0-0.21-0.042-0.266-0.093c0.056-0.07,0.089-0.16,0.089-0.258c0-0.23-0.188-0.419-0.419-0.419
					c-0.23,0-0.417,0.189-0.417,0.419c0,0.231,0.188,0.417,0.417,0.417c0.037,0,0.071-0.005,0.105-0.012
					c0.102,0.113,0.266,0.214,0.504,0.209c0.124-0.002,0.214,0.03,0.273,0.097c0.07,0.075,0.093,0.185,0.1,0.267
					c-0.001,0.002-0.001,0.004-0.002,0.004c-0.272,0.743-0.194,1.668-0.194,1.668l0.661,0.025c0.014-0.336,0.061-0.925,0.232-1.393
					c0.329-0.906,0.741-1.472,0.757-1.496l0.004-0.005c0.024-0.031,0.047-0.06,0.071-0.089l-0.196-0.142L245.453,473.189z"/>
				<path id="XMLID_372_" style="fill:#2A4F9A;" d="M257.294,471.787c-0.23,0-0.419,0.186-0.419,0.417
					c0,0.037,0.006,0.071,0.016,0.104c-0.115,0.104-0.215,0.267-0.211,0.506c0.002,0.123-0.03,0.213-0.097,0.273
					c-0.053,0.047-0.119,0.071-0.185,0.087c-0.492-0.689-1.098-1.109-1.098-1.109l-0.474,0.509c0.358,0.326,0.725,0.734,1.08,1.244
					c0.246,0.352,0.499,0.806,0.71,1.258l0.64-0.304c0,0-0.292-0.722-0.703-1.369c0.071-0.025,0.143-0.063,0.206-0.12
					c0.126-0.113,0.188-0.272,0.184-0.474c-0.001-0.13,0.041-0.218,0.093-0.275c0.071,0.054,0.16,0.089,0.258,0.089
					c0.232,0,0.418-0.188,0.418-0.419C257.712,471.974,257.525,471.787,257.294,471.787z"/>
				<path id="XMLID_371_" style="fill:#2A4F9A;" d="M255.633,477.537c-0.88,0.429-2.33,0.996-4.236,1.262
					c-0.749,0.104-1.475,0.143-2.143,0.143c-0.869,0-1.638-0.064-2.227-0.14c-0.672-0.084-1.198-0.188-1.52-0.261
					c0.078,0.245,0.171,0.487,0.284,0.724c0.002,0.006,0.005,0.013,0.008,0.018c0.013,0.027,0.027,0.056,0.04,0.083
					c0.014,0.027,0.027,0.055,0.041,0.079c0.004,0.008,0.007,0.015,0.01,0.021c0.19,0.357,0.417,0.684,0.676,0.968
					c0.899,0.984,1.816,1.139,1.825,1.141l0.015,0.002l0.013,0.005c0.009,0.003,0.821,0.265,2.057,0.265
					c1.215,0,2.409-0.244,3.545-0.729c0.842-0.431,1.639-1.085,2.033-1.668c0.306-0.452,0.526-0.934,0.656-1.434
					c0.069-0.266,0.124-0.692,0.092-1.141C256.555,477.042,256.163,477.279,255.633,477.537z"/>
				<path id="XMLID_367_" style="fill:#2A4F9A;" d="M252.322,471.655c-0.265-0.044-0.477-0.068-0.777-0.068
					c-0.279,0-0.626,0.022-1.088,0.07c-0.465,0.049-0.982,0.171-1.583,0.373c-0.842,0.282-1.604,0.725-2.204,1.28l-0.02,0.019
					c-0.089,0.081-0.275,0.254-0.488,0.525c-0.025,0.037-0.408,0.578-0.709,1.408c-0.226,0.621-0.216,1.526-0.216,1.537v0.001
					c0,0.212,0.013,0.423,0.036,0.632c0,0.005,0,0.008,0.001,0.011c0.003,0.027,0.007,0.053,0.01,0.08
					c0.019,0.144,0.043,0.291,0.074,0.438c0.438,0.112,3.048,0.721,5.967,0.314c1.829-0.254,3.218-0.795,4.061-1.204
					c0.701-0.34,1.151-0.647,1.325-0.773c-0.173-0.643-0.651-1.65-1.089-2.278C254.367,472.228,253.016,471.77,252.322,471.655z
					 M248.679,476.914c-0.972,0-1.759-0.787-1.759-1.76c0-0.972,0.788-1.76,1.759-1.76c0.973,0,1.761,0.788,1.761,1.76
					C250.439,476.127,249.651,476.914,248.679,476.914z M253.828,475.617c-0.601,0-1.088-0.489-1.088-1.09
					c0-0.603,0.487-1.09,1.088-1.09s1.09,0.487,1.09,1.09C254.918,475.128,254.429,475.617,253.828,475.617z"/>
			</g>
		</g>
	</g>
</g>
</svg>
