<?xml version="1.0" encoding="utf-8"?>
<!-- Generator: Adobe Illustrator 27.5.0, SVG Export Plug-In . SVG Version: 6.00 Build 0)  -->
<svg version="1.1" xmlns="http://www.w3.org/2000/svg" xmlns:xlink="http://www.w3.org/1999/xlink" x="0px" y="0px"
	 viewBox="0 0 500 500" style="enable-background:new 0 0 500 500;" xml:space="preserve">
<g id="BACKGROUND">
	<rect style="fill:#FFFFFF;" width="500" height="500"/>
</g>
<g id="OBJECTS">
	<g>
		<defs>
			<rect id="SVGID_1_" width="500" height="500"/>
		</defs>
		<clipPath id="SVGID_00000158004020267972671630000012850758398974393016_">
			<use xlink:href="#SVGID_1_"  style="overflow:visible;"/>
		</clipPath>
		<g style="clip-path:url(#SVGID_00000158004020267972671630000012850758398974393016_);">
			<path style="fill:#C6D8ED;" d="M390.74,312.203h-11.272c-0.228-3.142-2.842-5.624-6.032-5.624h-8.573
				c-3.19,0-5.805,2.482-6.02,5.624h-11.284c-5.527,0-10.013,4.485-10.013,10.013v25.482c0,5.54,4.485,10.025,10.013,10.025h43.183
				c5.527,0,10.024-4.485,10.024-10.025v-25.482C400.765,316.689,396.268,312.203,390.74,312.203z M361.372,312.203
				c0.204-1.751,1.679-3.118,3.49-3.118h8.573c1.811,0,3.286,1.367,3.502,3.118H361.372z"/>
			<polygon style="fill:#5686C4;" points="378.335,332.13 371.978,332.13 371.978,325.773 366.324,325.773 366.324,332.13 
				359.967,332.13 359.967,337.785 366.324,337.785 366.324,344.142 371.978,344.142 371.978,337.785 378.335,337.785 			"/>
			<rect x="347.558" y="312.203" style="fill:#5686C4;" width="4.174" height="45.521"/>
			<rect x="385.967" y="312.203" style="fill:#5686C4;" width="4.174" height="45.521"/>
		</g>
		<g style="clip-path:url(#SVGID_00000158004020267972671630000012850758398974393016_);">
			<rect x="100.734" y="316.979" style="fill:#B7C1DA;" width="25.055" height="41.167"/>
			<rect x="103.915" y="327.764" style="fill:#FFFFFF;" width="18.691" height="15.162"/>
			<rect x="99.149" y="308.716" style="fill:#2A4F9A;" width="28.225" height="8.264"/>
		</g>
		<g style="clip-path:url(#SVGID_00000158004020267972671630000012850758398974393016_);">
			<polygon style="fill:#5686C4;" points="281.27,357.5 281.27,351.832 270.965,341.527 270.965,322.432 229.034,322.432 
				229.034,341.527 218.729,351.832 218.729,357.5 			"/>
			<path style="fill:#5686C4;" d="M359.89,190.996v125.883c0,6.832-5.357,12.365-11.975,12.365H152.084
				c-6.615,0-11.974-5.533-11.974-12.365V190.996c0-6.822,5.358-12.366,11.974-12.366h195.831
				C354.532,178.63,359.89,184.174,359.89,190.996z"/>
			<path style="fill:#353C73;" d="M359.89,302.978v13.901c0,6.832-5.357,12.365-11.975,12.365H152.084
				c-6.615,0-11.974-5.533-11.974-12.365v-13.901H359.89z"/>
			<path style="fill:#FFFFFF;" d="M264.412,316.667c0,3.184-2.581,5.765-5.764,5.765h-17.296c-3.184,0-5.765-2.581-5.765-5.765l0,0
				c0-3.184,2.581-5.765,5.765-5.765h17.296C261.831,310.902,264.412,313.483,264.412,316.667L264.412,316.667z"/>
			<g>
				<path style="fill:#C6D8ED;" d="M348.725,291.607c0,1.1-0.9,2-2,2H153.275c-1.1,0-2-0.9-2-2V192.56c0-1.1,0.9-2,2-2h193.449
					c1.1,0,2,0.9,2,2V291.607z"/>
			</g>
		</g>
		<polygon style="clip-path:url(#SVGID_00000158004020267972671630000012850758398974393016_);fill:#B7C1DA;" points="
			214.964,293.607 214.964,281.417 217.712,293.607 		"/>
		<polygon style="clip-path:url(#SVGID_00000158004020267972671630000012850758398974393016_);fill:#B7C1DA;" points="
			286.754,293.607 286.754,281.417 284.006,293.607 		"/>
		<g style="clip-path:url(#SVGID_00000158004020267972671630000012850758398974393016_);">
			<path style="fill:#5686C4;" d="M470,358.147c0,0-17-88.147-34-88.147s6.171,73.963,6.171,73.963S437.5,333.5,425,333.5
				s-3.5,15.498-3.5,15.498s-12.5-3.006-13,9.149H470z"/>
			
				<line style="fill:none;stroke:#353C73;stroke-linecap:round;stroke-miterlimit:10;" x1="439.25" y1="282.764" x2="456.83" y2="358.147"/>
			
				<line style="fill:none;stroke:#353C73;stroke-linecap:round;stroke-miterlimit:10;" x1="448.04" y1="320.455" x2="436.164" y2="307.058"/>
			
				<line style="fill:none;stroke:#353C73;stroke-linecap:round;stroke-miterlimit:10;" x1="448.04" y1="289.256" x2="443.57" y2="301.289"/>
			
				<line style="fill:none;stroke:#353C73;stroke-linecap:round;stroke-miterlimit:10;" x1="429.497" y1="343.963" x2="436.164" y2="358.147"/>
		</g>
		<g style="clip-path:url(#SVGID_00000158004020267972671630000012850758398974393016_);">
			<path style="fill:#5686C4;" d="M82.834,358.147c0,0,19.5-100.647,0-102.147s-20.829,51.059-15,87.963
				c0,0-6.077-13.379-13.25-9.963c-5.25,2.5-4.75,9.963-1.75,17.055c0,0-18-9.262-18,7.092H82.834z"/>
			
				<line style="fill:none;stroke:#353C73;stroke-linecap:round;stroke-miterlimit:10;" x1="82.664" y1="273.662" x2="73.998" y2="358.147"/>
			
				<line style="fill:none;stroke:#353C73;stroke-linecap:round;stroke-miterlimit:10;" x1="79.059" y1="305.75" x2="70.664" y2="293.25"/>
			
				<line style="fill:none;stroke:#353C73;stroke-linecap:round;stroke-miterlimit:10;" x1="82.664" y1="330.776" x2="75.453" y2="343.963"/>
			
				<line style="fill:none;stroke:#353C73;stroke-linecap:round;stroke-miterlimit:10;" x1="57.609" y1="346" x2="63.167" y2="358.147"/>
		</g>
		
			<line style="clip-path:url(#SVGID_00000158004020267972671630000012850758398974393016_);fill:none;stroke:#353C73;stroke-width:2;stroke-linecap:round;stroke-miterlimit:10;" x1="475.81" y1="358.147" x2="24.19" y2="358.147"/>
		<g style="clip-path:url(#SVGID_00000158004020267972671630000012850758398974393016_);">
			<polygon style="fill:#C6D8ED;" points="420.385,414.753 359.967,450.893 408.527,468.397 463.301,428.305 			"/>
			<polygon style="fill:#EF8B7B;" points="414.982,421.179 407.351,425.744 443.898,438.817 450.879,434.111 			"/>
			
				<line style="fill:none;stroke:#353C73;stroke-linecap:round;stroke-miterlimit:10;" x1="394.153" y1="435.273" x2="429.114" y2="447.875"/>
			
				<line style="fill:none;stroke:#353C73;stroke-linecap:round;stroke-miterlimit:10;" x1="385.303" y1="440.574" x2="420.264" y2="453.176"/>
			
				<line style="fill:none;stroke:#353C73;stroke-linecap:round;stroke-miterlimit:10;" x1="377.319" y1="446.875" x2="412.28" y2="459.477"/>
		</g>
		<g style="clip-path:url(#SVGID_00000158004020267972671630000012850758398974393016_);">
			<path style="fill:#5686C4;" d="M303.09,407.128c0,0-9-30,0-30s6.605,20.195,6.605,20.195s5.272-13.75,13.972-12.323
				c8.996,1.476,6,18.667,6,18.667s6.086-11.177,13.91-8.765c8.405,2.591,6.013,12.226,6.013,12.226H303.09z"/>
			
				<line style="fill:none;stroke:#353C73;stroke-linecap:round;stroke-miterlimit:10;" x1="303.333" y1="380.291" x2="308" y2="407.449"/>
			
				<line style="fill:none;stroke:#353C73;stroke-linecap:round;stroke-miterlimit:10;" x1="319.333" y1="407.128" x2="322.333" y2="392.128"/>
			
				<line style="fill:none;stroke:#353C73;stroke-linecap:round;stroke-miterlimit:10;" x1="341.619" y1="401.023" x2="339" y2="407.449"/>
			
				<line style="fill:none;stroke:#353C73;stroke-linecap:round;stroke-miterlimit:10;" x1="296.59" y1="407.128" x2="358.586" y2="407.128"/>
		</g>
		<g style="clip-path:url(#SVGID_00000158004020267972671630000012850758398974393016_);">
			<path style="fill:#B7C1DA;" d="M401.5,393.855c0,0,0.992-14.105,14.996-14.105c0,0,20.754-0.039,24.754,14.105H401.5z"/>
			
				<line style="fill:none;stroke:#353C73;stroke-linecap:round;stroke-miterlimit:10;" x1="399.462" y1="393.855" x2="444.75" y2="393.855"/>
		</g>
		<g style="clip-path:url(#SVGID_00000158004020267972671630000012850758398974393016_);">
			<path style="fill:#5686C4;" d="M93.5,395.25c0,0-1.321-9.447,8-10.535c7.702-0.898,10.763,5.285,10.763,5.285
				s0.702-19.699,12.72-18.975c12.018,0.725,7.695,17.475,5.607,24.225H93.5z"/>
			
				<line style="fill:none;stroke:#353C73;stroke-linecap:round;stroke-miterlimit:10;" x1="124.982" y1="377.333" x2="121" y2="395.25"/>
			<line style="fill:none;stroke:#353C73;stroke-linecap:round;stroke-miterlimit:10;" x1="101.5" y1="391" x2="104" y2="395.25"/>
			
				<line style="fill:none;stroke:#353C73;stroke-linecap:round;stroke-miterlimit:10;" x1="88" y1="395.25" x2="136.525" y2="395.25"/>
		</g>
		<g style="clip-path:url(#SVGID_00000158004020267972671630000012850758398974393016_);">
			<path style="fill:#B7C1DA;" d="M212.657,447.557c0,0,0-15.4,16.25-15.847c0,0,2.25-4.653,12.75-4.8
				c10.5-0.146,20.5,7.939,20.5,20.646H212.657z"/>
			
				<line style="fill:none;stroke:#353C73;stroke-linecap:round;stroke-miterlimit:10;" x1="208.157" y1="447.557" x2="268.657" y2="447.557"/>
		</g>
		<g style="clip-path:url(#SVGID_00000158004020267972671630000012850758398974393016_);">
			<rect x="104.84" y="85" style="fill:#B7C1DA;" width="56.494" height="127"/>
			
				<line style="fill:none;stroke:#353C73;stroke-linecap:round;stroke-miterlimit:10;" x1="114.337" y1="96.5" x2="151.837" y2="96.5"/>
			
				<line style="fill:none;stroke:#353C73;stroke-linecap:round;stroke-miterlimit:10;" x1="114.337" y1="106.5" x2="151.837" y2="106.5"/>
			
				<line style="fill:none;stroke:#353C73;stroke-linecap:round;stroke-miterlimit:10;" x1="114.337" y1="116.5" x2="151.837" y2="116.5"/>
			
				<line style="fill:none;stroke:#353C73;stroke-linecap:round;stroke-miterlimit:10;" x1="114.337" y1="136.5" x2="151.837" y2="136.5"/>
			
				<line style="fill:none;stroke:#353C73;stroke-linecap:round;stroke-miterlimit:10;" x1="114.337" y1="146.5" x2="151.837" y2="146.5"/>
			
				<line style="fill:none;stroke:#353C73;stroke-linecap:round;stroke-miterlimit:10;" x1="114.337" y1="166.5" x2="151.837" y2="166.5"/>
			
				<line style="fill:none;stroke:#353C73;stroke-linecap:round;stroke-miterlimit:10;" x1="114.337" y1="176.5" x2="151.837" y2="176.5"/>
			
				<line style="fill:none;stroke:#353C73;stroke-linecap:round;stroke-miterlimit:10;" x1="114.337" y1="176.5" x2="151.837" y2="176.5"/>
			<circle style="fill:#FFFFFF;" cx="133.087" cy="195.162" r="11.338"/>
			<polygon style="fill:#EF8B7B;" points="140.087,193.007 135.242,193.007 135.242,188.162 130.932,188.162 130.932,193.007 
				126.087,193.007 126.087,197.316 130.932,197.316 130.932,202.162 135.242,202.162 135.242,197.316 140.087,197.316 			"/>
		</g>
		<g style="clip-path:url(#SVGID_00000158004020267972671630000012850758398974393016_);">
			<path style="fill:#2A4F9A;" d="M285.379,116.5h67.907c9,0,16.298,7.296,16.298,16.298v2.716c0,9.001-7.298,16.297-16.298,16.297
				H291.06l-10.584,11.545v-12.297c-6.603-2.082-11.395-8.252-11.395-15.544v-2.716C269.081,123.796,276.379,116.5,285.379,116.5z"
				/>
			
				<line style="fill:none;stroke:#FFFFFF;stroke-width:1.5;stroke-linecap:round;stroke-miterlimit:10;" x1="281.353" y1="126.584" x2="309.353" y2="126.584"/>
			
				<line style="fill:none;stroke:#FFFFFF;stroke-width:1.5;stroke-linecap:round;stroke-miterlimit:10;" x1="314.353" y1="126.584" x2="346.243" y2="126.584"/>
			
				<line style="fill:none;stroke:#FFFFFF;stroke-width:1.5;stroke-linecap:round;stroke-miterlimit:10;" x1="287.347" y1="133.084" x2="314.353" y2="133.084"/>
			
				<line style="fill:none;stroke:#FFFFFF;stroke-width:1.5;stroke-linecap:round;stroke-miterlimit:10;" x1="321.686" y1="133.084" x2="335.078" y2="133.084"/>
			
				<line style="fill:none;stroke:#FFFFFF;stroke-width:1.5;stroke-linecap:round;stroke-miterlimit:10;" x1="342.663" y1="133.084" x2="363.353" y2="133.084"/>
			
				<line style="fill:none;stroke:#FFFFFF;stroke-width:1.5;stroke-linecap:round;stroke-miterlimit:10;" x1="281.353" y1="139.928" x2="314.353" y2="139.928"/>
			
				<line style="fill:none;stroke:#FFFFFF;stroke-width:1.5;stroke-linecap:round;stroke-miterlimit:10;" x1="321.686" y1="139.928" x2="360.939" y2="139.928"/>
		</g>
		<g style="clip-path:url(#SVGID_00000158004020267972671630000012850758398974393016_);">
			<path style="fill:#EF8B7B;" d="M194.025,393.789c0.333,1.339-0.483,2.696-1.822,3.029l-9.947,2.475
				c-1.339,0.333-2.696-0.483-3.03-1.822c-0.166-0.669-0.047-1.349,0.281-1.894c0.326-0.555,0.87-0.978,1.539-1.145l9.947-2.475
				C192.332,391.624,193.692,392.449,194.025,393.789z"/>
			<path style="fill:#C6D8ED;" d="M194.025,393.789c0.333,1.339-0.483,2.696-1.822,3.029l-4.978,1.238l-1.21-4.861l4.978-1.238
				C192.332,391.624,193.692,392.449,194.025,393.789z"/>
		</g>
		<g style="clip-path:url(#SVGID_00000158004020267972671630000012850758398974393016_);">
			<path style="fill:#EF8B7B;" d="M223.952,406.016c-0.068,1.378-1.244,2.44-2.622,2.371l-10.238-0.514
				c-1.377-0.069-2.439-1.244-2.371-2.622c0.035-0.689,0.346-1.305,0.818-1.73c0.473-0.436,1.115-0.686,1.805-0.651l10.238,0.515
				C222.958,403.452,224.021,404.637,223.952,406.016z"/>
			<path style="fill:#C6D8ED;" d="M223.952,406.016c-0.068,1.378-1.244,2.44-2.622,2.371l-5.124-0.258l0.251-5.003l5.124,0.258
				C222.958,403.452,224.021,404.637,223.952,406.016z"/>
		</g>
		<g style="clip-path:url(#SVGID_00000158004020267972671630000012850758398974393016_);">
			<path style="fill:#EF8B7B;" d="M59.915,420.085c-0.085,1.377-1.273,2.426-2.65,2.34l-10.231-0.635
				c-1.376-0.086-2.424-1.272-2.34-2.649c0.043-0.689,0.361-1.301,0.839-1.721c0.478-0.432,1.124-0.673,1.813-0.63l10.231,0.636
				C58.953,417.511,60.001,418.707,59.915,420.085z"/>
			<path style="fill:#C6D8ED;" d="M59.915,420.085c-0.085,1.377-1.273,2.426-2.65,2.34l-5.121-0.318l0.311-4.999l5.122,0.318
				C58.953,417.511,60.001,418.707,59.915,420.085z"/>
		</g>
		<g style="clip-path:url(#SVGID_00000158004020267972671630000012850758398974393016_);">
			<g>
				<path style="fill:#353C73;" d="M453,262c0,1.1-0.9,2-2,2h-72.5c-1.1,0-2-0.9-2-2v-96.644c0-1.1,0.9-2,2-2H451c1.1,0,2,0.9,2,2
					V262z"/>
			</g>
			<g>
				<path style="fill:#FFFFFF;" d="M449.402,257.268c0,1.1-0.9,2-2,2h-65.305c-1.1,0-2-0.9-2-2v-87.179c0-1.1,0.9-2,2-2h65.305
					c1.1,0,2,0.9,2,2V257.268z"/>
			</g>
			<rect x="395.835" y="158.272" style="fill:#5686C4;" width="37.83" height="11.728"/>
			
				<ellipse transform="matrix(0.9996 -0.0289 0.0289 0.9996 -4.4742 12.0548)" style="fill:none;stroke:#5686C4;stroke-width:2;stroke-miterlimit:10;" cx="414.75" cy="160.794" rx="7.295" ry="7.294"/>
			
				<line style="fill:none;stroke:#353C73;stroke-linecap:round;stroke-miterlimit:10;" x1="387.375" y1="181.5" x2="442.125" y2="181.5"/>
			
				<line style="fill:none;stroke:#353C73;stroke-linecap:round;stroke-miterlimit:10;" x1="387.375" y1="191.5" x2="442.125" y2="191.5"/>
			
				<line style="fill:none;stroke:#353C73;stroke-linecap:round;stroke-miterlimit:10;" x1="387.375" y1="201.5" x2="442.125" y2="201.5"/>
			
				<line style="fill:none;stroke:#353C73;stroke-linecap:round;stroke-miterlimit:10;" x1="387.375" y1="211.5" x2="442.125" y2="211.5"/>
			
				<line style="fill:none;stroke:#353C73;stroke-linecap:round;stroke-miterlimit:10;" x1="409.483" y1="221.5" x2="442.125" y2="221.5"/>
			<rect x="418.334" y="247.5" style="fill:#2A4F9A;" width="25.236" height="6.438"/>
		</g>
		<g style="clip-path:url(#SVGID_00000158004020267972671630000012850758398974393016_);">
			<g>
				<path style="fill:#5686C4;" d="M55.228,468.244c0,0,0.837-12.132,9.5-14.574c10.5-2.96,15,5.074,15,5.074
					s4.531-8.034,16.516-8.034c11.984,0,14.984,17.534,14.984,17.534H55.228z"/>
				
					<line style="fill:none;stroke:#353C73;stroke-linecap:round;stroke-miterlimit:10;" x1="96.854" y1="456.744" x2="92.728" y2="468.244"/>
				
					<line style="fill:none;stroke:#353C73;stroke-linecap:round;stroke-miterlimit:10;" x1="68.586" y1="461.799" x2="72.228" y2="468.244"/>
			</g>
			
				<line style="fill:none;stroke:#353C73;stroke-linecap:round;stroke-miterlimit:10;" x1="48.764" y1="468.244" x2="116.564" y2="468.244"/>
		</g>
		<path style="clip-path:url(#SVGID_00000158004020267972671630000012850758398974393016_);fill:#C6D8ED;" d="M108.137,47.042
			h-3.873c0.383-1.059,0.603-2.195,0.603-3.386c0-5.5-4.459-9.958-9.958-9.958h-2.3c0.127-0.578,0.2-1.176,0.2-1.792
			c0-4.58-3.712-8.292-8.292-8.292H74.101c-4.58,0-8.292,3.712-8.292,8.292c0,0.616,0.072,1.214,0.2,1.792h-6.051
			c-5.5,0-9.958,4.458-9.958,9.958c0,1.19,0.22,2.327,0.603,3.386H49.98c-5.065,0-9.172,4.106-9.172,9.172
			c0,5.065,4.106,9.172,9.172,9.172h58.157c5.065,0,9.172-4.106,9.172-9.172C117.309,51.148,113.203,47.042,108.137,47.042z"/>
		<path style="clip-path:url(#SVGID_00000158004020267972671630000012850758398974393016_);fill:#C6D8ED;" d="M417.79,62.452h-0.467
			c0.42-1.157,0.662-2.4,0.662-3.702c0-5.993-4.858-10.852-10.852-10.852h-23.897c0.624-1.254,0.983-2.662,0.983-4.158
			c0-5.167-4.188-9.355-9.355-9.355h-15.65c-5.167,0-9.355,4.188-9.355,9.355c0,1.496,0.359,2.904,0.983,4.158h-5.941
			c-5.993,0-10.852,4.858-10.852,10.852c0,1.302,0.241,2.545,0.661,3.702h-8.903c-6.779,0-12.274,5.495-12.274,12.275
			c0,6.778,5.495,12.273,12.274,12.273h91.982c6.779,0,12.274-5.495,12.274-12.273C430.064,67.947,424.569,62.452,417.79,62.452z"/>
		<path style="clip-path:url(#SVGID_00000158004020267972671630000012850758398974393016_);fill:#C6D8ED;" d="M78.865,214.685
			h-0.268c0.241-0.662,0.379-1.374,0.379-2.119c0-3.43-2.78-6.211-6.211-6.211H59.088c0.357-0.718,0.563-1.524,0.563-2.38
			c0-2.958-2.397-5.355-5.355-5.355h-8.957c-2.957,0-5.354,2.397-5.354,5.355c0,0.856,0.205,1.662,0.563,2.38h-3.4
			c-3.431,0-6.211,2.781-6.211,6.211c0,0.745,0.138,1.456,0.378,2.119h-5.096c-3.88,0-7.025,3.145-7.025,7.025
			c0,3.88,3.146,7.025,7.025,7.025h52.647c3.88,0,7.025-3.145,7.025-7.025C85.891,217.83,82.745,214.685,78.865,214.685z"/>
		<g style="clip-path:url(#SVGID_00000158004020267972671630000012850758398974393016_);">
			<g>
				<path style="fill:none;stroke:#353C73;stroke-linecap:round;stroke-miterlimit:10;" d="M57.609,188.162
					c0,0-0.044-1.524,0.191-3.991"/>
				<path style="fill:none;stroke:#353C73;stroke-linecap:round;stroke-miterlimit:10;stroke-dasharray:7.7966,7.7966;" d="
					M59.127,176.495c2.601-10.332,9.629-24.436,28.563-28.822"/>
				<path style="fill:none;stroke:#353C73;stroke-linecap:round;stroke-miterlimit:10;" d="M91.522,146.947
					c1.277-0.191,2.602-0.341,3.978-0.447"/>
			</g>
		</g>
		<g style="clip-path:url(#SVGID_00000158004020267972671630000012850758398974393016_);">
			<g>
				<path style="fill:none;stroke:#353C73;stroke-linecap:round;stroke-miterlimit:10;" d="M189.03,81c0,0,1.366-0.502,3.814-1.19"
					/>
				<path style="fill:none;stroke:#353C73;stroke-linecap:round;stroke-miterlimit:10;stroke-dasharray:8.0687,8.0687;" d="
					M200.693,77.948c18.924-3.729,56.959-6.041,84.365,26.063"/>
				<path style="fill:none;stroke:#353C73;stroke-linecap:round;stroke-miterlimit:10;" d="M287.61,107.143
					c0.808,1.037,1.604,2.106,2.39,3.209"/>
			</g>
		</g>
		
			<path style="clip-path:url(#SVGID_00000158004020267972671630000012850758398974393016_);fill:none;stroke:#353C73;stroke-linecap:round;stroke-miterlimit:10;stroke-dasharray:8;" d="
			M376.5,121c0,0,27.5-5.5,38.25,25.5"/>
		<g style="clip-path:url(#SVGID_00000158004020267972671630000012850758398974393016_);">
			<path style="fill:#FFFFFF;" d="M268.196,245.176h-36.394c0,0-32.797-0.09-32.797,48.432h101.987
				C300.993,245.085,268.196,245.176,268.196,245.176"/>
			<polygon style="fill:#2A4F9A;" points="267.715,245.176 261.109,293.607 238.407,293.607 231.803,245.176 			"/>
			<polygon style="fill:#B7C1DA;" points="238.407,293.607 223.723,268.106 231.065,263.984 223.723,248.785 231.803,245.176 			"/>
			<polygon style="fill:#B7C1DA;" points="261.13,293.607 275.814,268.106 268.472,263.984 275.814,248.785 267.734,245.176 			"/>
			<path style="fill:#353C73;" d="M217.519,183.963c0,0-14.443,53.642,24.734,53.642c39.177,0,42.804-13.043,40.475-47.046
				C280.399,156.557,217.519,183.963,217.519,183.963z"/>
			<path style="fill:#EF8B7B;" d="M279.808,193.823c0,19.634-13.419,35.551-29.971,35.551c-16.552,0-29.97-15.917-29.97-35.551
				c0-19.634,13.418-35.551,29.97-35.551C266.389,158.272,279.808,174.189,279.808,193.823z"/>
			<path style="fill:#353C73;" d="M217.519,183.963c0,0,28.13,2.478,39.565-13.495c0,0,4.976,20.091,25.643,20.091
				c0,0-2.563-32.288-33.258-32.288C218.776,158.272,217.519,183.963,217.519,183.963z"/>
			<path style="fill:#EF8B7B;" d="M241.879,227.367c0,0,5.037,17.809-10.076,17.809c0,0,10.469,11.51,18.034,11.51
				c9.448,0,18.034-11.51,18.034-11.51c-15.112,0-10.076-17.809-10.076-17.809H241.879z"/>
			<path style="fill:#FFFFFF;" d="M236.775,209.591h26.124c0,0-2.997,11.182-13.061,11.182
				C239.773,220.773,236.775,209.591,236.775,209.591z"/>
			<g>
				<path style="fill:#353C73;" d="M245.462,202.907c0,0,0.294-0.639,1.01-1.409c0.176-0.194,0.385-0.39,0.614-0.588
					c0.244-0.181,0.481-0.404,0.783-0.561c0.285-0.181,0.601-0.343,0.944-0.466c0.338-0.126,0.714-0.208,1.087-0.259
					c0.384-0.015,0.768-0.028,1.14,0.074c0.385,0.039,0.707,0.24,1.027,0.39c0.328,0.143,0.55,0.413,0.799,0.602
					c0.254,0.191,0.391,0.461,0.561,0.666c0.347,0.409,0.476,0.843,0.609,1.112c0.118,0.279,0.176,0.44,0.176,0.44
					s-0.125-0.121-0.343-0.331c-0.102-0.106-0.226-0.235-0.367-0.383c-0.128-0.158-0.311-0.296-0.499-0.451
					c-0.197-0.141-0.367-0.35-0.606-0.474c-0.24-0.118-0.456-0.31-0.723-0.395c-0.264-0.093-0.525-0.208-0.814-0.228
					c-0.278-0.074-0.572-0.044-0.863-0.029c-0.291,0.031-0.589,0.082-0.874,0.178c-0.285,0.099-0.573,0.185-0.837,0.325
					c-0.541,0.244-1.027,0.547-1.445,0.813C246.016,202.484,245.462,202.907,245.462,202.907z"/>
			</g>
			<g>
				<g>
					<g>
						<path style="fill:#353C73;" d="M232.741,193.823c0,0,0.358-0.979,1.287-2.249c0.463-0.631,1.089-1.322,1.899-1.93
							c0.807-0.604,1.856-1.088,3.01-1.152c0.573-0.006,1.146,0.081,1.673,0.263c0.525,0.184,0.995,0.462,1.405,0.766
							c0.417,0.3,0.758,0.651,1.069,0.986c0.299,0.345,0.566,0.681,0.775,1.015c0.442,0.649,0.719,1.24,0.911,1.648
							c0.187,0.412,0.279,0.652,0.279,0.652s-0.171-0.197-0.445-0.55c-0.262-0.36-0.686-0.842-1.194-1.394
							c-0.249-0.282-0.547-0.554-0.854-0.844c-0.32-0.274-0.665-0.547-1.04-0.788c-0.372-0.248-0.788-0.427-1.211-0.576
							c-0.428-0.137-0.878-0.19-1.327-0.18c-0.904,0.031-1.787,0.404-2.555,0.878c-0.763,0.489-1.425,1.058-1.964,1.582
							c-0.536,0.527-0.979,0.987-1.262,1.333C232.907,193.627,232.741,193.823,232.741,193.823z"/>
					</g>
					<g>
						<polygon style="fill:#353C73;" points="234.275,191.812 230.322,188.363 234.858,190.999 						"/>
					</g>
				</g>
				<g>
					<g>
						<path style="fill:#353C73;" d="M266.934,193.823c0,0-0.165-0.196-0.455-0.539c-0.282-0.345-0.726-0.806-1.262-1.333
							c-0.539-0.524-1.201-1.093-1.964-1.582c-0.768-0.474-1.651-0.847-2.555-0.878c-0.449-0.01-0.898,0.043-1.326,0.18
							c-0.423,0.149-0.84,0.328-1.212,0.576c-0.375,0.241-0.721,0.514-1.04,0.788c-0.306,0.29-0.604,0.563-0.853,0.844
							c-0.508,0.551-0.933,1.033-1.194,1.394c-0.274,0.353-0.445,0.55-0.445,0.55s0.093-0.24,0.279-0.652
							c0.191-0.408,0.468-0.999,0.91-1.648c0.209-0.334,0.476-0.67,0.775-1.015c0.31-0.335,0.651-0.686,1.068-0.986
							c0.41-0.304,0.88-0.582,1.405-0.766c0.527-0.182,1.1-0.269,1.673-0.263c1.153,0.063,2.203,0.548,3.01,1.152
							c0.81,0.608,1.436,1.298,1.9,1.93C266.576,192.844,266.934,193.823,266.934,193.823z"/>
					</g>
					<g>
						<polygon style="fill:#353C73;" points="264.817,190.999 269.352,188.363 265.399,191.812 						"/>
					</g>
				</g>
			</g>
		</g>
		<path style="clip-path:url(#SVGID_00000158004020267972671630000012850758398974393016_);fill:#5686C4;" d="M188.604,144.017
			l-13.999-32.353c-0.247-0.572-0.598-1.062-1.003-1.489c7.483-5.623,10.464-15.833,6.588-24.793
			c-3.287-7.596-10.76-12.504-19.037-12.504c-2.836,0-5.604,0.575-8.224,1.709c-10.492,4.54-15.335,16.769-10.795,27.261
			c3.286,7.596,10.758,12.504,19.036,12.504c1.198,0,2.379-0.126,3.546-0.329c0.035,0.587,0.151,1.177,0.398,1.747l13.999,32.354
			c1.133,2.62,4.178,3.826,6.798,2.692C188.533,149.682,189.738,146.637,188.604,144.017z M149.477,98.671
			c-2.788-6.443,0.186-13.954,6.629-16.743c1.612-0.697,3.31-1.051,5.047-1.051c5.085,0,9.675,3.015,11.695,7.681
			c2.788,6.443-0.187,13.953-6.63,16.741c-1.612,0.698-3.311,1.051-5.048,1.051C156.085,106.352,151.495,103.337,149.477,98.671z"/>
	</g>
</g>
<g id="DESIGNED_BY_FREEPIK">
	<g id="XMLID_76_">
		<g id="XMLID_929_">
			<path id="XMLID_958_" style="fill:#353C73;" d="M181.087,472.134c-0.246,0-0.435,0.085-0.567,0.255
				c-0.133,0.17-0.199,0.421-0.199,0.753v2.393c-0.304-0.332-0.617-0.579-0.937-0.739c-0.321-0.159-0.715-0.24-1.182-0.24
				c-0.807,0-1.458,0.283-1.953,0.849c-0.494,0.566-0.742,1.355-0.742,2.369c0,0.479,0.063,0.923,0.188,1.335
				c0.124,0.412,0.307,0.77,0.549,1.074c0.241,0.305,0.526,0.539,0.857,0.703c0.33,0.164,0.689,0.246,1.078,0.246
				c0.293,0,0.563-0.04,0.809-0.122c0.247-0.08,0.477-0.199,0.689-0.356c0.212-0.155,0.426-0.358,0.644-0.607v0.16
				c0,0.297,0.072,0.525,0.217,0.685c0.145,0.16,0.328,0.24,0.549,0.24c0.226,0,0.409-0.077,0.552-0.231
				c0.143-0.154,0.213-0.386,0.213-0.694v-7.147c0-0.305-0.066-0.534-0.199-0.69C181.52,472.212,181.332,472.134,181.087,472.134z
				 M180.021,478.975c-0.141,0.306-0.329,0.533-0.563,0.682c-0.236,0.148-0.496,0.223-0.781,0.223c-0.28,0-0.539-0.078-0.777-0.236
				c-0.237-0.154-0.424-0.387-0.561-0.695c-0.136-0.31-0.205-0.683-0.205-1.122c0-0.415,0.063-0.78,0.193-1.096
				c0.128-0.314,0.31-0.556,0.543-0.724c0.233-0.168,0.499-0.252,0.795-0.252c0.285,0,0.547,0.082,0.787,0.245
				c0.239,0.165,0.429,0.402,0.569,0.713c0.141,0.311,0.21,0.682,0.21,1.113C180.232,478.283,180.163,478.667,180.021,478.975z"/>
			<path id="XMLID_954_" style="fill:#353C73;" d="M188.452,478.054c0.233-0.122,0.35-0.385,0.35-0.793
				c0-0.438-0.113-0.87-0.338-1.294c-0.225-0.423-0.564-0.769-1.019-1.035c-0.453-0.268-0.996-0.399-1.628-0.399
				c-0.487,0-0.93,0.077-1.33,0.233c-0.4,0.156-0.737,0.381-1.01,0.674c-0.272,0.293-0.48,0.643-0.623,1.054
				c-0.143,0.409-0.213,0.853-0.213,1.332c0,1.017,0.289,1.822,0.867,2.415c0.577,0.593,1.387,0.891,2.427,0.891
				c0.456,0,0.858-0.06,1.207-0.178c0.352-0.12,0.641-0.268,0.874-0.448c0.231-0.181,0.404-0.368,0.519-0.565
				c0.115-0.196,0.172-0.366,0.172-0.514c0-0.166-0.052-0.294-0.155-0.386c-0.103-0.09-0.237-0.137-0.403-0.137
				c-0.154,0-0.273,0.036-0.356,0.107c-0.203,0.19-0.366,0.34-0.492,0.451s-0.265,0.216-0.415,0.313
				c-0.15,0.098-0.305,0.167-0.466,0.214c-0.16,0.044-0.337,0.067-0.531,0.067c-0.289,0-0.553-0.07-0.792-0.213
				c-0.239-0.143-0.432-0.355-0.576-0.636c-0.144-0.281-0.219-0.605-0.222-0.974h3.168
				C187.89,478.234,188.219,478.174,188.452,478.054z M184.297,477.315c0.055-0.547,0.212-0.96,0.472-1.238
				c0.259-0.28,0.59-0.418,0.994-0.418c0.423,0,0.764,0.137,1.024,0.411c0.259,0.275,0.409,0.69,0.448,1.245H184.297z"/>
			<path id="XMLID_952_" style="fill:#353C73;" d="M193.878,477.617c-0.319-0.17-0.729-0.316-1.231-0.439
				c-0.424-0.104-0.756-0.19-0.997-0.261c-0.242-0.07-0.434-0.161-0.576-0.27c-0.143-0.108-0.213-0.247-0.213-0.418
				c0-0.186,0.097-0.342,0.291-0.465c0.194-0.126,0.437-0.188,0.73-0.188c0.286,0,0.511,0.047,0.677,0.142
				c0.166,0.096,0.31,0.223,0.433,0.381c0.151,0.189,0.284,0.331,0.401,0.426c0.116,0.096,0.258,0.144,0.424,0.144
				c0.23,0,0.407-0.061,0.532-0.178c0.124-0.119,0.187-0.271,0.187-0.457c0-0.171-0.058-0.345-0.175-0.523
				c-0.116-0.178-0.286-0.34-0.51-0.485c-0.223-0.147-0.502-0.265-0.837-0.351c-0.333-0.088-0.71-0.131-1.13-0.131
				c-0.535,0-0.99,0.085-1.367,0.259c-0.378,0.172-0.665,0.402-0.859,0.69c-0.194,0.289-0.291,0.597-0.291,0.92
				c0,0.364,0.105,0.671,0.315,0.921c0.21,0.249,0.489,0.45,0.839,0.602c0.351,0.152,0.804,0.298,1.362,0.435
				c0.494,0.12,0.849,0.244,1.066,0.375c0.216,0.131,0.323,0.338,0.323,0.622c0,0.187-0.104,0.352-0.311,0.497
				c-0.208,0.144-0.474,0.216-0.798,0.216c-0.4,0-0.715-0.07-0.947-0.213c-0.232-0.144-0.431-0.357-0.597-0.647
				c-0.082-0.149-0.169-0.267-0.261-0.351c-0.091-0.082-0.221-0.124-0.39-0.124c-0.194,0-0.355,0.064-0.481,0.19
				c-0.128,0.126-0.191,0.278-0.191,0.456c0,0.27,0.099,0.537,0.296,0.805c0.198,0.267,0.505,0.489,0.92,0.667
				c0.415,0.179,0.914,0.268,1.495,0.268c0.609,0,1.127-0.082,1.552-0.246c0.425-0.164,0.747-0.405,0.964-0.725
				c0.218-0.318,0.326-0.701,0.326-1.148c0-0.297-0.081-0.56-0.246-0.792C194.438,477.988,194.196,477.787,193.878,477.617z"/>
			<path id="XMLID_950_" style="fill:#353C73;" d="M196.486,474.543c-0.238,0-0.431,0.081-0.579,0.243
				c-0.149,0.162-0.222,0.404-0.222,0.724v4.636c0,0.316,0.073,0.56,0.222,0.73c0.148,0.17,0.341,0.255,0.579,0.255
				c0.238,0,0.433-0.083,0.588-0.249c0.154-0.166,0.232-0.412,0.232-0.736v-4.683c0-0.288-0.078-0.515-0.232-0.677
				C196.919,474.624,196.724,474.543,196.486,474.543z"/>
			<path id="XMLID_949_" style="fill:#353C73;" d="M196.504,472.204c-0.217,0-0.409,0.073-0.573,0.223
				c-0.165,0.149-0.246,0.337-0.246,0.567c0,0.254,0.08,0.449,0.24,0.588c0.16,0.138,0.353,0.208,0.579,0.208
				c0.217,0,0.405-0.071,0.563-0.212c0.158-0.14,0.238-0.335,0.238-0.584c0-0.258-0.081-0.453-0.244-0.588
				C196.9,472.272,196.714,472.204,196.504,472.204z"/>
			<path id="XMLID_945_" style="fill:#353C73;" d="M203.626,474.543c-0.217,0-0.396,0.077-0.535,0.231
				c-0.139,0.154-0.208,0.372-0.208,0.652v0.221c-0.289-0.376-0.602-0.651-0.938-0.829c-0.337-0.175-0.734-0.264-1.193-0.264
				c-0.384,0-0.736,0.068-1.056,0.204c-0.321,0.138-0.604,0.34-0.849,0.609c-0.245,0.268-0.433,0.599-0.566,0.991
				c-0.133,0.392-0.199,0.831-0.199,1.317c0,0.653,0.108,1.228,0.327,1.728c0.217,0.498,0.529,0.886,0.934,1.163
				c0.406,0.276,0.88,0.415,1.422,0.415c0.45,0,0.839-0.091,1.166-0.272c0.327-0.182,0.614-0.447,0.864-0.797
				c-0.008,0.531-0.02,0.916-0.036,1.155c-0.016,0.24-0.07,0.465-0.164,0.674c-0.093,0.209-0.255,0.373-0.486,0.489
				c-0.232,0.117-0.557,0.176-0.977,0.176c-0.205,0-0.387-0.02-0.545-0.057c-0.159-0.038-0.294-0.095-0.406-0.171
				c-0.112-0.078-0.216-0.171-0.309-0.28c-0.093-0.108-0.183-0.217-0.27-0.323c-0.178-0.21-0.386-0.315-0.624-0.315
				c-0.189,0-0.352,0.062-0.486,0.188c-0.135,0.123-0.202,0.284-0.202,0.482c0,0.262,0.119,0.516,0.356,0.764
				c0.238,0.247,0.576,0.448,1.014,0.605c0.439,0.155,0.938,0.233,1.496,0.233c0.609,0,1.119-0.061,1.528-0.184
				c0.409-0.122,0.741-0.311,0.994-0.563c0.253-0.254,0.438-0.574,0.551-0.961c0.115-0.389,0.173-0.852,0.173-1.39v-4.706
				c0-0.384-0.051-0.678-0.155-0.882C204.146,474.646,203.938,474.543,203.626,474.543z M202.6,478.908
				c-0.151,0.291-0.346,0.508-0.586,0.653c-0.239,0.144-0.493,0.217-0.762,0.217c-0.455,0-0.826-0.168-1.113-0.505
				c-0.287-0.336-0.431-0.834-0.431-1.49c0-0.648,0.139-1.149,0.419-1.501c0.279-0.352,0.649-0.528,1.113-0.528
				c0.475,0,0.858,0.184,1.148,0.553c0.291,0.367,0.437,0.882,0.437,1.542C202.825,478.265,202.749,478.617,202.6,478.908z"/>
			<path id="XMLID_944_" style="fill:#353C73;" d="M210.978,475.61c-0.165-0.339-0.418-0.602-0.753-0.788
				c-0.337-0.187-0.718-0.279-1.146-0.279c-0.439,0-0.828,0.088-1.166,0.264c-0.338,0.177-0.65,0.452-0.935,0.828v-0.195
				c0-0.193-0.034-0.358-0.104-0.493c-0.069-0.134-0.162-0.234-0.276-0.302c-0.114-0.068-0.244-0.102-0.387-0.102
				c-0.233,0-0.416,0.076-0.552,0.229c-0.134,0.152-0.201,0.383-0.201,0.691v4.683c0,0.316,0.076,0.56,0.226,0.73
				c0.15,0.17,0.342,0.255,0.576,0.255c0.241,0,0.438-0.082,0.59-0.246c0.152-0.164,0.228-0.411,0.228-0.739v-2.03
				c0-0.66,0.04-1.11,0.119-1.353c0.11-0.3,0.284-0.537,0.522-0.71c0.237-0.172,0.5-0.258,0.788-0.258
				c0.444,0,0.74,0.143,0.888,0.425c0.148,0.282,0.223,0.691,0.223,1.226v2.7c0,0.316,0.074,0.56,0.226,0.73
				c0.15,0.17,0.346,0.255,0.587,0.255c0.238,0,0.431-0.083,0.578-0.249c0.149-0.166,0.224-0.412,0.224-0.736v-3.016
				c0-0.357-0.017-0.648-0.048-0.878C211.155,476.023,211.085,475.809,210.978,475.61z"/>
			<path id="XMLID_939_" style="fill:#353C73;" d="M217.821,478.054c0.233-0.122,0.35-0.385,0.35-0.793
				c0-0.438-0.113-0.87-0.338-1.294c-0.226-0.423-0.565-0.769-1.019-1.035c-0.453-0.268-0.996-0.399-1.628-0.399
				c-0.487,0-0.93,0.077-1.33,0.233c-0.4,0.156-0.736,0.381-1.009,0.674c-0.273,0.293-0.481,0.643-0.624,1.054
				c-0.142,0.409-0.213,0.853-0.213,1.332c0,1.017,0.289,1.822,0.866,2.415c0.578,0.593,1.387,0.891,2.428,0.891
				c0.455,0,0.858-0.06,1.208-0.178c0.351-0.12,0.64-0.268,0.872-0.448c0.232-0.181,0.405-0.368,0.52-0.565
				c0.114-0.196,0.172-0.366,0.172-0.514c0-0.166-0.051-0.294-0.154-0.386c-0.103-0.09-0.238-0.137-0.404-0.137
				c-0.154,0-0.273,0.036-0.356,0.107c-0.201,0.19-0.366,0.34-0.492,0.451c-0.128,0.111-0.266,0.216-0.415,0.313
				c-0.151,0.098-0.307,0.167-0.466,0.214c-0.161,0.044-0.338,0.067-0.532,0.067c-0.288,0-0.553-0.07-0.792-0.213
				c-0.239-0.143-0.431-0.355-0.575-0.636c-0.145-0.281-0.219-0.605-0.223-0.974h3.169
				C217.26,478.234,217.588,478.174,217.821,478.054z M213.666,477.315c0.056-0.547,0.212-0.96,0.471-1.238
				c0.259-0.28,0.591-0.418,0.995-0.418c0.423,0,0.765,0.137,1.024,0.411c0.259,0.275,0.409,0.69,0.448,1.245H213.666z"/>
			<path id="XMLID_936_" style="fill:#353C73;" d="M224.206,472.134c-0.245,0-0.434,0.085-0.567,0.255
				c-0.132,0.17-0.199,0.421-0.199,0.753v2.393c-0.304-0.332-0.617-0.579-0.938-0.739c-0.32-0.159-0.714-0.24-1.181-0.24
				c-0.808,0-1.458,0.283-1.953,0.849c-0.495,0.566-0.741,1.355-0.741,2.369c0,0.479,0.062,0.923,0.187,1.335
				c0.125,0.412,0.308,0.77,0.549,1.074c0.241,0.305,0.527,0.539,0.857,0.703c0.33,0.164,0.689,0.246,1.077,0.246
				c0.293,0,0.563-0.04,0.81-0.122c0.248-0.08,0.476-0.199,0.689-0.356c0.211-0.155,0.426-0.358,0.643-0.607v0.16
				c0,0.297,0.072,0.525,0.217,0.685c0.145,0.16,0.328,0.24,0.549,0.24c0.226,0,0.41-0.077,0.552-0.231
				c0.143-0.154,0.213-0.386,0.213-0.694v-7.147c0-0.305-0.065-0.534-0.199-0.69C224.641,472.212,224.452,472.134,224.206,472.134z
				 M223.141,478.975c-0.14,0.306-0.328,0.533-0.564,0.682c-0.235,0.148-0.495,0.223-0.781,0.223c-0.281,0-0.54-0.078-0.776-0.236
				c-0.238-0.154-0.425-0.387-0.562-0.695c-0.137-0.31-0.205-0.683-0.205-1.122c0-0.415,0.064-0.78,0.193-1.096
				c0.129-0.314,0.31-0.556,0.543-0.724c0.233-0.168,0.499-0.252,0.795-0.252c0.285,0,0.547,0.082,0.787,0.245
				c0.239,0.165,0.43,0.402,0.57,0.713c0.14,0.311,0.21,0.682,0.21,1.113C223.352,478.283,223.281,478.667,223.141,478.975z"/>
			<path id="XMLID_933_" style="fill:#353C73;" d="M233.586,474.938c-0.406-0.255-0.877-0.383-1.415-0.383
				c-0.467,0-0.859,0.084-1.175,0.252c-0.317,0.168-0.627,0.411-0.932,0.728v-2.476c0-0.297-0.068-0.524-0.202-0.686
				c-0.135-0.159-0.326-0.239-0.576-0.239c-0.237,0-0.423,0.084-0.555,0.252c-0.133,0.168-0.198,0.416-0.198,0.744v7.075
				c0,0.305,0.068,0.535,0.205,0.692c0.136,0.156,0.319,0.233,0.549,0.233c0.226,0,0.412-0.077,0.558-0.233
				c0.146-0.157,0.22-0.388,0.22-0.692v-0.16c0.178,0.205,0.322,0.36,0.43,0.463c0.109,0.103,0.241,0.203,0.395,0.3
				c0.154,0.098,0.341,0.175,0.561,0.234c0.22,0.06,0.454,0.089,0.704,0.089c0.407,0,0.781-0.082,1.119-0.246
				c0.338-0.164,0.626-0.397,0.864-0.698c0.237-0.3,0.418-0.655,0.543-1.064c0.124-0.41,0.187-0.859,0.187-1.35
				c0-0.665-0.112-1.241-0.336-1.725C234.305,475.564,233.991,475.193,233.586,474.938z M232.796,479.348
				c-0.295,0.354-0.646,0.531-1.053,0.531c-0.479,0-0.866-0.174-1.161-0.521c-0.295-0.346-0.442-0.841-0.442-1.486
				c0-0.44,0.069-0.818,0.207-1.136c0.138-0.319,0.328-0.563,0.57-0.73c0.24-0.168,0.516-0.252,0.825-0.252
				c0.3,0,0.563,0.084,0.789,0.252c0.225,0.168,0.399,0.406,0.521,0.716c0.123,0.308,0.184,0.677,0.184,1.103
				C233.238,478.486,233.09,478.993,232.796,479.348z"/>
			<path id="XMLID_931_" style="fill:#353C73;" d="M240.529,474.641c-0.112-0.065-0.23-0.098-0.353-0.098
				c-0.171,0-0.302,0.029-0.395,0.09c-0.093,0.058-0.181,0.173-0.264,0.344c-0.083,0.17-0.176,0.406-0.279,0.705l-1.3,3.71
				l-1.371-3.988c-0.091-0.277-0.195-0.489-0.314-0.638c-0.119-0.148-0.295-0.223-0.529-0.223c-0.135,0-0.264,0.035-0.389,0.107
				c-0.124,0.07-0.222,0.166-0.294,0.285c-0.071,0.117-0.107,0.246-0.107,0.385c0,0.131,0.062,0.341,0.184,0.629l1.995,5.022
				l-0.148,0.362c-0.111,0.265-0.208,0.466-0.294,0.601c-0.085,0.139-0.181,0.234-0.288,0.289c-0.107,0.056-0.254,0.084-0.44,0.084
				c-0.075,0-0.163-0.013-0.266-0.036c-0.083-0.024-0.168-0.036-0.256-0.036c-0.221,0-0.388,0.051-0.501,0.151
				c-0.113,0.101-0.169,0.245-0.169,0.431c0,0.272,0.119,0.461,0.356,0.564c0.237,0.103,0.593,0.153,1.068,0.153
				c0.487,0,0.873-0.073,1.161-0.223c0.287-0.147,0.517-0.361,0.691-0.638c0.174-0.277,0.353-0.659,0.535-1.146l2.113-5.531
				c0.051-0.143,0.095-0.283,0.13-0.421c0.037-0.14,0.061-0.246,0.078-0.321c0-0.123-0.032-0.239-0.093-0.35
				C240.729,474.794,240.642,474.706,240.529,474.641z"/>
		</g>
		<g id="XMLID_365_">
			<g id="XMLID_380_">
				<path id="XMLID_928_" style="fill:#353C73;" d="M262.93,472.129c-0.533,0-0.954,0.068-1.26,0.204
					c-0.308,0.137-0.527,0.354-0.654,0.652c-0.13,0.301-0.191,0.702-0.191,1.211v0.487h-0.387c-0.543,0-0.815,0.191-0.815,0.582
					c0,0.174,0.065,0.315,0.196,0.423c0.132,0.111,0.316,0.164,0.559,0.164h0.446v4.294c0,0.318,0.074,0.563,0.228,0.729
					c0.154,0.17,0.344,0.254,0.573,0.254c0.243,0,0.438-0.084,0.589-0.254c0.155-0.167,0.23-0.411,0.23-0.729v-4.294h0.396
					c0.291,0,0.517-0.035,0.681-0.107c0.166-0.071,0.245-0.24,0.245-0.503c0-0.373-0.307-0.559-0.926-0.559h-0.396v-0.387
					c0-0.321,0.043-0.567,0.122-0.739c0.087-0.172,0.273-0.26,0.565-0.26c0.108,0,0.241,0.014,0.39,0.034
					c0.155,0.026,0.268,0.038,0.33,0.038c0.134,0,0.252-0.055,0.348-0.16c0.102-0.107,0.15-0.235,0.15-0.385
					C264.35,472.358,263.879,472.129,262.93,472.129z"/>
				<path id="XMLID_926_" style="fill:#353C73;" d="M268.089,474.795c-0.32-0.171-0.648-0.255-0.99-0.255
					c-0.342,0-0.61,0.084-0.818,0.255c-0.202,0.171-0.4,0.421-0.592,0.755c-0.015-0.334-0.08-0.584-0.199-0.755
					c-0.119-0.171-0.313-0.255-0.583-0.255c-0.525,0-0.788,0.364-0.788,1.093v4.514c0,0.323,0.078,0.568,0.226,0.732
					c0.149,0.169,0.34,0.251,0.579,0.251c0.236,0,0.432-0.081,0.586-0.247c0.15-0.163,0.233-0.41,0.233-0.736v-1.356
					c0-0.486,0.014-0.899,0.045-1.238c0.033-0.337,0.09-0.631,0.17-0.878c0.084-0.243,0.201-0.425,0.353-0.554
					c0.149-0.122,0.345-0.186,0.582-0.186c0.172,0,0.374,0.036,0.602,0.108c0.227,0.073,0.371,0.112,0.434,0.112
					c0.157,0,0.304-0.064,0.44-0.194c0.135-0.126,0.204-0.292,0.204-0.488C268.571,475.192,268.411,474.966,268.089,474.795z"/>
				<path id="XMLID_922_" style="fill:#353C73;" d="M274.176,478.052c0.233-0.122,0.351-0.385,0.351-0.791
					c0-0.44-0.112-0.87-0.339-1.296c-0.222-0.423-0.565-0.77-1.018-1.033c-0.453-0.27-0.997-0.403-1.629-0.403
					c-0.488,0-0.931,0.078-1.329,0.232c-0.402,0.157-0.735,0.381-1.008,0.675c-0.275,0.295-0.484,0.644-0.624,1.055
					c-0.145,0.41-0.218,0.854-0.218,1.333c0,1.017,0.293,1.823,0.87,2.418c0.576,0.593,1.385,0.889,2.429,0.889
					c0.453,0,0.857-0.061,1.207-0.179c0.349-0.117,0.64-0.269,0.874-0.446c0.232-0.182,0.404-0.368,0.522-0.566
					c0.111-0.194,0.167-0.365,0.167-0.512c0-0.167-0.048-0.294-0.152-0.386c-0.104-0.093-0.237-0.139-0.405-0.139
					c-0.152,0-0.271,0.038-0.355,0.108c-0.202,0.189-0.367,0.34-0.493,0.449c-0.128,0.113-0.264,0.218-0.415,0.313
					c-0.15,0.097-0.307,0.17-0.466,0.213c-0.16,0.048-0.336,0.069-0.531,0.069c-0.29,0-0.552-0.07-0.792-0.212
					c-0.24-0.145-0.431-0.357-0.578-0.636c-0.145-0.28-0.216-0.606-0.222-0.974h3.171
					C273.615,478.233,273.942,478.173,274.176,478.052z M270.02,477.313c0.055-0.546,0.213-0.957,0.472-1.236
					c0.26-0.28,0.592-0.418,0.995-0.418c0.426,0,0.764,0.136,1.024,0.412c0.261,0.273,0.407,0.688,0.446,1.242H270.02z"/>
				<path id="XMLID_919_" style="fill:#353C73;" d="M280.916,478.052c0.232-0.122,0.352-0.385,0.352-0.791
					c0-0.44-0.116-0.87-0.341-1.296c-0.222-0.423-0.564-0.77-1.013-1.033c-0.46-0.27-1.003-0.403-1.634-0.403
					c-0.486,0-0.932,0.078-1.33,0.232c-0.4,0.157-0.736,0.381-1.009,0.675c-0.273,0.295-0.48,0.644-0.622,1.055
					c-0.145,0.41-0.218,0.854-0.218,1.333c0,1.017,0.291,1.823,0.868,2.418c0.58,0.593,1.387,0.889,2.43,0.889
					c0.453,0,0.859-0.061,1.208-0.179c0.348-0.117,0.641-0.269,0.872-0.446c0.234-0.182,0.408-0.368,0.518-0.566
					c0.116-0.194,0.171-0.365,0.171-0.512c0-0.167-0.047-0.294-0.15-0.386c-0.104-0.093-0.238-0.139-0.406-0.139
					c-0.151,0-0.27,0.038-0.355,0.108c-0.202,0.189-0.367,0.34-0.492,0.449c-0.127,0.113-0.264,0.218-0.415,0.313
					c-0.152,0.097-0.307,0.17-0.469,0.213c-0.157,0.048-0.335,0.069-0.527,0.069c-0.291,0-0.556-0.07-0.795-0.212
					c-0.238-0.145-0.431-0.357-0.575-0.636c-0.144-0.28-0.218-0.606-0.222-0.974h3.17
					C280.354,478.233,280.682,478.173,280.916,478.052z M276.762,477.313c0.053-0.546,0.211-0.957,0.47-1.236
					c0.261-0.28,0.592-0.418,0.995-0.418c0.425,0,0.764,0.136,1.026,0.412c0.257,0.273,0.407,0.688,0.446,1.242H276.762z"/>
				<path id="XMLID_390_" style="fill:#353C73;" d="M286.927,474.938c-0.42-0.257-0.883-0.387-1.379-0.387
					c-0.415,0-0.79,0.09-1.114,0.268c-0.331,0.176-0.648,0.452-0.952,0.827v-0.194c0-0.297-0.071-0.52-0.218-0.678
					c-0.144-0.155-0.329-0.233-0.56-0.233c-0.233,0-0.419,0.078-0.554,0.228c-0.133,0.154-0.199,0.382-0.199,0.691v6.995
					c0,0.354,0.051,0.62,0.145,0.807c0.102,0.183,0.301,0.274,0.607,0.274c0.517,0,0.777-0.358,0.777-1.068v-2.434
					c0.286,0.358,0.586,0.635,0.9,0.817c0.314,0.187,0.704,0.279,1.166,0.279c0.385,0,0.741-0.076,1.079-0.228
					c0.334-0.152,0.622-0.372,0.868-0.653c0.245-0.283,0.44-0.632,0.58-1.05c0.14-0.418,0.21-0.878,0.21-1.376
					c0-0.677-0.122-1.261-0.366-1.758C287.676,475.571,287.346,475.195,286.927,474.938z M286.45,478.94
					c-0.137,0.313-0.32,0.546-0.552,0.704c-0.229,0.153-0.48,0.233-0.748,0.233c-0.454,0-0.828-0.179-1.133-0.536
					c-0.307-0.358-0.46-0.862-0.46-1.504c0-0.687,0.155-1.204,0.462-1.558c0.307-0.35,0.685-0.527,1.131-0.527
					c0.281,0,0.54,0.083,0.77,0.247c0.229,0.163,0.411,0.398,0.542,0.705c0.13,0.306,0.196,0.674,0.196,1.101
					C286.658,478.248,286.589,478.627,286.45,478.94z"/>
				<path id="XMLID_389_" style="fill:#353C73;" d="M289.9,474.54c-0.238,0-0.428,0.079-0.58,0.244
					c-0.146,0.163-0.222,0.403-0.222,0.722v4.642c0,0.313,0.076,0.555,0.222,0.729c0.152,0.17,0.342,0.254,0.58,0.254
					s0.432-0.082,0.588-0.251c0.154-0.164,0.231-0.409,0.231-0.731v-4.688c0-0.286-0.077-0.512-0.231-0.675
					C290.332,474.619,290.139,474.54,289.9,474.54z"/>
				<path id="XMLID_388_" style="fill:#353C73;" d="M289.917,472.199c-0.217,0-0.407,0.076-0.571,0.223
					c-0.166,0.149-0.247,0.339-0.247,0.568c0,0.253,0.08,0.447,0.242,0.586c0.158,0.138,0.35,0.209,0.576,0.209
					c0.22,0,0.408-0.071,0.566-0.21c0.157-0.14,0.236-0.335,0.236-0.585c0-0.257-0.082-0.454-0.244-0.591
					C290.314,472.267,290.13,472.199,289.917,472.199z"/>
				<path id="XMLID_387_" style="fill:#353C73;" d="M297.258,479.569l-1.662-2.614l0.861-0.788c0.438-0.395,0.658-0.714,0.658-0.951
					c0-0.192-0.068-0.354-0.2-0.483c-0.138-0.128-0.306-0.192-0.509-0.192c-0.169,0-0.313,0.043-0.432,0.13
					c-0.121,0.086-0.29,0.251-0.517,0.486l-1.822,1.913v-3.933c0-0.329-0.074-0.581-0.221-0.751
					c-0.147-0.171-0.344-0.257-0.593-0.257c-0.256,0-0.457,0.093-0.596,0.283c-0.136,0.188-0.207,0.462-0.207,0.82v6.914
					c0,0.323,0.073,0.568,0.215,0.732c0.141,0.169,0.339,0.251,0.588,0.251c0.213,0,0.405-0.084,0.566-0.254
					c0.164-0.167,0.247-0.406,0.247-0.719v-1.29l0.88-0.83l1.428,2.352c0.182,0.278,0.329,0.472,0.435,0.58
					c0.107,0.109,0.261,0.16,0.459,0.16c0.226,0,0.412-0.073,0.553-0.222c0.142-0.15,0.214-0.351,0.214-0.609
					c0-0.089-0.029-0.189-0.082-0.288C297.47,479.909,297.379,479.765,297.258,479.569z"/>
				<path id="XMLID_386_" style="fill:#353C73;" d="M299.45,479.343c-0.251,0-0.459,0.087-0.63,0.262
					c-0.171,0.173-0.257,0.381-0.257,0.622c0,0.287,0.091,0.51,0.269,0.665c0.179,0.159,0.389,0.238,0.633,0.238
					c0.237,0,0.444-0.079,0.624-0.241c0.175-0.157,0.264-0.38,0.264-0.662c0-0.243-0.089-0.454-0.264-0.626
					C299.909,479.43,299.698,479.343,299.45,479.343z"/>
				<path id="XMLID_385_" style="fill:#353C73;" d="M306.835,478.416c-0.166,0-0.308,0.055-0.422,0.156
					c-0.113,0.104-0.219,0.245-0.318,0.427c-0.177,0.31-0.381,0.538-0.616,0.69c-0.23,0.149-0.509,0.225-0.834,0.225
					c-0.24,0-0.463-0.045-0.666-0.141c-0.201-0.094-0.372-0.229-0.516-0.409c-0.144-0.18-0.252-0.398-0.325-0.652
					c-0.075-0.256-0.114-0.537-0.114-0.842c0-0.646,0.147-1.161,0.44-1.533c0.293-0.375,0.682-0.561,1.158-0.561
					c0.333,0,0.606,0.075,0.82,0.227c0.219,0.147,0.425,0.376,0.623,0.674c0.108,0.158,0.209,0.27,0.299,0.339
					c0.09,0.069,0.201,0.104,0.338,0.104c0.202,0,0.377-0.068,0.524-0.203c0.143-0.135,0.214-0.3,0.214-0.491
					c0-0.192-0.062-0.397-0.192-0.617c-0.127-0.218-0.315-0.424-0.556-0.62c-0.245-0.192-0.54-0.352-0.891-0.474
					c-0.353-0.124-0.736-0.185-1.156-0.185c-0.674,0-1.26,0.139-1.747,0.419c-0.485,0.278-0.858,0.673-1.113,1.183
					c-0.259,0.511-0.387,1.098-0.387,1.765c0,0.982,0.281,1.765,0.841,2.35c0.563,0.582,1.345,0.876,2.349,0.876
					c0.469,0,0.894-0.065,1.269-0.191c0.377-0.126,0.688-0.295,0.935-0.503c0.248-0.207,0.434-0.425,0.553-0.655
					c0.122-0.23,0.183-0.446,0.183-0.647c0-0.169-0.066-0.331-0.198-0.481C307.198,478.493,307.033,478.416,306.835,478.416z"/>
				<path id="XMLID_382_" style="fill:#353C73;" d="M313.646,475.453c-0.288-0.291-0.628-0.518-1.026-0.675
					c-0.4-0.16-0.847-0.238-1.336-0.238c-0.482,0-0.924,0.078-1.326,0.233c-0.398,0.158-0.737,0.38-1.02,0.669
					c-0.281,0.288-0.498,0.637-0.648,1.045c-0.146,0.408-0.225,0.857-0.225,1.349c0,0.485,0.076,0.93,0.22,1.332
					c0.151,0.401,0.369,0.75,0.657,1.048c0.284,0.292,0.626,0.521,1.016,0.676c0.393,0.159,0.835,0.239,1.326,0.239
					c0.492,0,0.937-0.08,1.336-0.234c0.394-0.157,0.735-0.382,1.02-0.675c0.286-0.291,0.502-0.642,0.656-1.05
					c0.145-0.408,0.222-0.854,0.222-1.336c0-0.488-0.075-0.932-0.221-1.339C314.148,476.096,313.933,475.749,313.646,475.453z
					 M312.455,479.368c-0.29,0.373-0.682,0.558-1.171,0.558c-0.324,0-0.604-0.086-0.846-0.253c-0.24-0.168-0.424-0.409-0.554-0.729
					c-0.129-0.316-0.193-0.685-0.193-1.108c0-0.428,0.066-0.803,0.197-1.124c0.13-0.321,0.314-0.564,0.556-0.728
					c0.242-0.163,0.522-0.245,0.84-0.245c0.489,0,0.881,0.182,1.171,0.555c0.289,0.367,0.436,0.881,0.436,1.542
					C312.891,478.486,312.744,478.999,312.455,479.368z"/>
				<path id="XMLID_381_" style="fill:#353C73;" d="M323.569,474.814c-0.32-0.173-0.705-0.263-1.146-0.263
					c-0.38,0-0.726,0.081-1.038,0.241c-0.314,0.161-0.607,0.408-0.882,0.738c-0.191-0.326-0.431-0.572-0.725-0.735
					c-0.292-0.162-0.642-0.244-1.048-0.244c-0.395,0-0.748,0.079-1.07,0.241c-0.319,0.156-0.62,0.403-0.903,0.738v-0.153
					c0-0.261-0.073-0.466-0.221-0.616c-0.15-0.145-0.335-0.221-0.558-0.221c-0.226,0-0.412,0.078-0.556,0.238
					c-0.14,0.157-0.21,0.389-0.21,0.694v4.636c0,0.337,0.078,0.592,0.235,0.765c0.156,0.171,0.358,0.258,0.604,0.258
					c0.248,0,0.447-0.087,0.603-0.258c0.149-0.173,0.227-0.428,0.227-0.765v-2.189c0-0.683,0.086-1.206,0.253-1.566
					c0.169-0.369,0.517-0.55,1.048-0.55c0.264,0,0.459,0.071,0.582,0.22c0.121,0.142,0.197,0.33,0.226,0.552
					c0.027,0.226,0.04,0.544,0.04,0.952v2.581c0,0.342,0.078,0.594,0.232,0.768c0.148,0.17,0.35,0.255,0.595,0.255
					c0.254,0,0.454-0.085,0.61-0.255c0.156-0.174,0.23-0.426,0.23-0.768v-2.153c0-0.694,0.063-1.178,0.178-1.452
					c0.109-0.209,0.259-0.383,0.451-0.508c0.191-0.125,0.395-0.191,0.608-0.191c0.264,0,0.463,0.071,0.596,0.215
					c0.128,0.142,0.209,0.318,0.238,0.528c0.029,0.21,0.044,0.486,0.044,0.837v2.725c0,0.337,0.078,0.592,0.234,0.765
					c0.157,0.171,0.356,0.258,0.604,0.258c0.252,0,0.458-0.085,0.611-0.255c0.154-0.174,0.229-0.426,0.229-0.768v-3.163
					c0-0.629-0.068-1.091-0.206-1.386C324.128,475.237,323.889,474.987,323.569,474.814z"/>
			</g>
			<g id="XMLID_366_">
				<path id="XMLID_379_" style="fill:#353C73;" d="M245.273,477.443c-0.001-0.003-0.001-0.006-0.001-0.011
					C245.272,477.438,245.272,477.44,245.273,477.443z"/>
				<path id="XMLID_378_" style="fill:#353C73;" d="M245.355,477.961c0.001,0,0.001,0,0.001,0c-0.03-0.146-0.055-0.294-0.073-0.438
					C245.301,477.669,245.326,477.816,245.355,477.961z"/>
				<path id="XMLID_377_" style="fill:#353C73;" d="M245.891,479.466c-0.003-0.007-0.006-0.014-0.01-0.021
					C245.885,479.452,245.888,479.459,245.891,479.466z"/>
				<path id="XMLID_376_" style="fill:#353C73;" d="M245.84,479.365c-0.014-0.027-0.027-0.056-0.04-0.083
					C245.812,479.311,245.826,479.338,245.84,479.365z"/>
				<path id="XMLID_375_" style="fill:#353C73;" d="M245.505,478.541c0.08,0.25,0.175,0.492,0.286,0.724
					c-0.113-0.236-0.206-0.478-0.284-0.724H245.505z"/>
				<path id="XMLID_374_" style="fill:#353C73;" d="M250.736,470.682l-0.076-0.26c0.299-0.063,0.523-0.329,0.523-0.647
					c0-0.363-0.296-0.659-0.66-0.659c-0.365,0-0.66,0.296-0.66,0.659c0,0.317,0.225,0.584,0.522,0.647l0.084,0.289
					c-1.021,0.141-1.834,0.539-1.834,0.539l0.144,0.44c0.617-0.206,1.153-0.331,1.64-0.383c0.476-0.051,0.833-0.073,1.126-0.073
					c0.313,0,0.545,0.025,0.81,0.069l0.075-0.476C252.43,470.828,251.697,470.603,250.736,470.682z"/>
				<path id="XMLID_373_" style="fill:#353C73;" d="M245.453,473.189c-0.017,0.023-0.497,0.465-0.876,1.279
					c-0.016-0.025-0.035-0.051-0.056-0.074c-0.114-0.124-0.272-0.188-0.474-0.184c-0.003,0-0.006,0-0.01,0
					c-0.124,0-0.21-0.042-0.266-0.093c0.056-0.07,0.089-0.16,0.089-0.258c0-0.23-0.188-0.419-0.419-0.419
					c-0.23,0-0.417,0.189-0.417,0.419c0,0.231,0.188,0.417,0.417,0.417c0.037,0,0.071-0.005,0.105-0.012
					c0.102,0.113,0.266,0.214,0.504,0.209c0.124-0.002,0.214,0.03,0.273,0.097c0.07,0.075,0.093,0.185,0.1,0.267
					c-0.001,0.002-0.001,0.004-0.002,0.004c-0.272,0.743-0.194,1.668-0.194,1.668l0.661,0.025c0.014-0.336,0.061-0.925,0.232-1.393
					c0.329-0.906,0.741-1.472,0.757-1.496l0.004-0.005c0.024-0.031,0.047-0.06,0.071-0.089l-0.196-0.142L245.453,473.189z"/>
				<path id="XMLID_372_" style="fill:#353C73;" d="M257.294,471.787c-0.23,0-0.419,0.186-0.419,0.417
					c0,0.037,0.006,0.071,0.016,0.104c-0.115,0.104-0.215,0.267-0.211,0.506c0.002,0.123-0.03,0.213-0.097,0.273
					c-0.053,0.047-0.119,0.071-0.185,0.087c-0.492-0.689-1.098-1.109-1.098-1.109l-0.474,0.509c0.358,0.326,0.725,0.734,1.08,1.244
					c0.246,0.352,0.499,0.806,0.71,1.258l0.64-0.304c0,0-0.292-0.722-0.703-1.369c0.071-0.025,0.143-0.063,0.206-0.12
					c0.126-0.113,0.188-0.272,0.184-0.474c-0.001-0.13,0.041-0.218,0.093-0.275c0.071,0.054,0.16,0.089,0.258,0.089
					c0.232,0,0.418-0.188,0.418-0.419C257.712,471.974,257.525,471.787,257.294,471.787z"/>
				<path id="XMLID_371_" style="fill:#353C73;" d="M255.633,477.537c-0.88,0.429-2.33,0.996-4.236,1.262
					c-0.749,0.104-1.475,0.143-2.143,0.143c-0.869,0-1.638-0.064-2.227-0.14c-0.672-0.084-1.198-0.188-1.52-0.261
					c0.078,0.245,0.171,0.487,0.284,0.724c0.002,0.006,0.005,0.013,0.008,0.018c0.013,0.027,0.027,0.056,0.04,0.083
					c0.014,0.027,0.027,0.055,0.041,0.079c0.004,0.008,0.007,0.015,0.01,0.021c0.19,0.357,0.417,0.684,0.676,0.968
					c0.899,0.984,1.816,1.139,1.825,1.141l0.015,0.002l0.013,0.005c0.009,0.003,0.821,0.265,2.057,0.265
					c1.215,0,2.409-0.244,3.545-0.729c0.842-0.431,1.639-1.085,2.033-1.668c0.306-0.452,0.526-0.934,0.656-1.434
					c0.069-0.266,0.124-0.692,0.092-1.141C256.555,477.042,256.163,477.279,255.633,477.537z"/>
				<path id="XMLID_367_" style="fill:#353C73;" d="M252.322,471.655c-0.265-0.044-0.477-0.068-0.777-0.068
					c-0.279,0-0.626,0.022-1.088,0.07c-0.465,0.049-0.982,0.171-1.583,0.373c-0.842,0.282-1.604,0.725-2.204,1.28l-0.02,0.019
					c-0.089,0.081-0.275,0.254-0.488,0.525c-0.025,0.037-0.408,0.578-0.709,1.408c-0.226,0.621-0.216,1.526-0.216,1.537v0.001
					c0,0.212,0.013,0.423,0.036,0.632c0,0.005,0,0.008,0.001,0.011c0.003,0.027,0.007,0.053,0.01,0.08
					c0.019,0.144,0.043,0.291,0.074,0.438c0.438,0.112,3.048,0.721,5.967,0.314c1.829-0.254,3.218-0.795,4.061-1.204
					c0.701-0.34,1.151-0.647,1.325-0.773c-0.173-0.643-0.651-1.65-1.089-2.278C254.367,472.228,253.016,471.77,252.322,471.655z
					 M248.679,476.914c-0.972,0-1.759-0.787-1.759-1.76c0-0.972,0.788-1.76,1.759-1.76c0.973,0,1.761,0.788,1.761,1.76
					C250.439,476.127,249.651,476.914,248.679,476.914z M253.828,475.617c-0.601,0-1.088-0.489-1.088-1.09
					c0-0.603,0.487-1.09,1.088-1.09s1.09,0.487,1.09,1.09C254.918,475.128,254.429,475.617,253.828,475.617z"/>
			</g>
		</g>
	</g>
</g>
</svg>
